<?xml version="1.0" encoding="UTF-8" standalone="no"?><!DOCTYPE svg PUBLIC "-//W3C//DTD SVG 1.1//EN" "http://www.w3.org/Graphics/SVG/1.1/DTD/svg11.dtd"><svg width="100%" height="100%" viewBox="0 0 82 51" version="1.1" xmlns="http://www.w3.org/2000/svg" xmlns:xlink="http://www.w3.org/1999/xlink" xml:space="preserve" xmlns:serif="http://www.serif.com/" style="fill-rule:evenodd;clip-rule:evenodd;"><clipPath id="_clip1"><rect id="Button.svg" x="0.08" y="0.48" width="81" height="50"/></clipPath><g clip-path="url(#_clip1)"><rect x="0.08" y="4.48" width="77" height="46"/><g><rect x="4.08" y="0.48" width="77" height="46" style="fill:#fff;"/><path d="M23.024,28.48l-0,-9.8l1.848,-0l-0,8.12l4.48,-0l-0,1.68l-6.328,-0Zm10.947,0.196c-0.69,-0 -1.311,-0.14 -1.862,-0.42c-0.55,-0.28 -0.984,-0.686 -1.302,-1.218c-0.317,-0.532 -0.476,-1.171 -0.476,-1.918l0,-0.224c0,-0.747 0.159,-1.386 0.476,-1.918c0.318,-0.532 0.752,-0.938 1.302,-1.218c0.551,-0.28 1.172,-0.42 1.862,-0.42c0.691,-0 1.312,0.14 1.862,0.42c0.551,0.28 0.985,0.686 1.302,1.218c0.318,0.532 0.476,1.171 0.476,1.918l0,0.224c0,0.747 -0.158,1.386 -0.476,1.918c-0.317,0.532 -0.751,0.938 -1.302,1.218c-0.55,0.28 -1.171,0.42 -1.862,0.42Zm0,-1.568c0.542,-0 0.99,-0.173 1.344,-0.518c0.355,-0.355 0.532,-0.859 0.532,-1.512l0,-0.14c0,-0.653 -0.177,-1.153 -0.532,-1.498c-0.345,-0.355 -0.793,-0.532 -1.344,-0.532c-0.541,-0 -0.989,0.177 -1.344,0.532c-0.354,0.345 -0.532,0.845 -0.532,1.498l0,0.14c0,0.653 0.178,1.157 0.532,1.512c0.355,0.345 0.803,0.518 1.344,0.518Zm4.933,-2.072l-0,-0.224c-0,-0.728 0.144,-1.349 0.434,-1.862c0.289,-0.523 0.672,-0.919 1.148,-1.19c0.485,-0.28 1.012,-0.42 1.582,-0.42c0.634,-0 1.115,0.112 1.442,0.336c0.326,0.224 0.564,0.457 0.714,0.7l0.252,-0l-0,-0.84l1.736,-0l-0,8.176c-0,0.476 -0.14,0.854 -0.42,1.134c-0.28,0.289 -0.654,0.434 -1.12,0.434l-4.648,-0l-0,-1.54l4.032,-0c0.261,-0 0.392,-0.14 0.392,-0.42l-0,-1.806l-0.252,-0c-0.094,0.149 -0.224,0.303 -0.392,0.462c-0.168,0.149 -0.392,0.275 -0.672,0.378c-0.28,0.103 -0.635,0.154 -1.064,0.154c-0.57,-0 -1.097,-0.135 -1.582,-0.406c-0.476,-0.28 -0.859,-0.677 -1.148,-1.19c-0.29,-0.523 -0.434,-1.148 -0.434,-1.876Zm3.668,1.932c0.541,-0 0.994,-0.173 1.358,-0.518c0.364,-0.345 0.546,-0.831 0.546,-1.456l-0,-0.14c-0,-0.635 -0.182,-1.12 -0.546,-1.456c-0.355,-0.345 -0.808,-0.518 -1.358,-0.518c-0.542,-0 -0.994,0.173 -1.358,0.518c-0.364,0.336 -0.546,0.821 -0.546,1.456l-0,0.14c-0,0.625 0.182,1.111 0.546,1.456c0.364,0.345 0.816,0.518 1.358,0.518Zm9.094,1.512l0,-9.8l1.848,-0l0,9.8l-1.848,-0Zm3.748,-0l-0,-6.944l1.736,-0l-0,0.91l0.252,-0c0.112,-0.243 0.322,-0.471 0.63,-0.686c0.308,-0.224 0.774,-0.336 1.4,-0.336c0.541,-0 1.012,0.126 1.414,0.378c0.41,0.243 0.728,0.583 0.952,1.022c0.224,0.429 0.336,0.933 0.336,1.512l-0,4.144l-1.764,-0l-0,-4.004c-0,-0.523 -0.131,-0.915 -0.392,-1.176c-0.252,-0.261 -0.616,-0.392 -1.092,-0.392c-0.542,-0 -0.962,0.182 -1.26,0.546c-0.299,0.355 -0.448,0.854 -0.448,1.498l-0,3.528l-1.764,-0Z" style="fill-rule:nonzero;"/><rect x="5.08" y="1.48" width="75" height="44" style="fill:none;stroke:#000;stroke-width:2px;"/></g></g></svg>