<?xml version="1.0" encoding="UTF-8" standalone="no"?><!DOCTYPE svg PUBLIC "-//W3C//DTD SVG 1.1//EN" "http://www.w3.org/Graphics/SVG/1.1/DTD/svg11.dtd"><svg width="100%" height="100%" viewBox="0 0 135 51" version="1.1" xmlns="http://www.w3.org/2000/svg" xmlns:xlink="http://www.w3.org/1999/xlink" xml:space="preserve" xmlns:serif="http://www.serif.com/" style="fill-rule:evenodd;clip-rule:evenodd;"><clipPath id="_clip1"><rect id="false.svg" x="0.511" y="0.48" width="133.654" height="50"/></clipPath><g clip-path="url(#_clip1)"><g><rect x="0.511" y="4.48" width="129.752" height="46"/><rect x="4.414" y="0.48" width="129.752" height="46" style="fill:#fff;"/><path d="M26.62,28.676c-0.656,-0 -1.252,-0.149 -1.789,-0.448c-0.528,-0.308 -0.952,-0.751 -1.271,-1.33c-0.309,-0.588 -0.464,-1.302 -0.464,-2.142l0,-2.352c0,-1.26 0.346,-2.226 1.038,-2.898c0.692,-0.681 1.63,-1.022 2.814,-1.022c1.174,-0 2.08,0.322 2.718,0.966c0.646,0.635 0.969,1.498 0.969,2.59l0,0.056l-1.775,-0l-0,-0.112c-0,-0.345 -0.073,-0.658 -0.219,-0.938c-0.136,-0.28 -0.346,-0.499 -0.628,-0.658c-0.282,-0.168 -0.637,-0.252 -1.065,-0.252c-0.638,-0 -1.139,0.201 -1.503,0.602c-0.364,0.401 -0.546,0.947 -0.546,1.638l-0,2.408c-0,0.681 0.182,1.232 0.546,1.652c0.364,0.411 0.874,0.616 1.53,0.616c0.656,-0 1.134,-0.177 1.434,-0.532c0.301,-0.355 0.451,-0.803 0.451,-1.344l-0,-0.14l-2.267,-0l-0,-1.568l4.042,-0l0,5.012l-1.666,-0l0,-0.938l-0.246,-0c-0.064,0.159 -0.168,0.327 -0.314,0.504c-0.137,0.177 -0.346,0.327 -0.628,0.448c-0.282,0.121 -0.669,0.182 -1.161,0.182Zm8.879,-0c-0.674,-0 -1.27,-0.145 -1.789,-0.434c-0.51,-0.299 -0.911,-0.714 -1.202,-1.246c-0.282,-0.541 -0.423,-1.176 -0.423,-1.904l-0,-0.168c-0,-0.728 0.141,-1.358 0.423,-1.89c0.282,-0.541 0.678,-0.957 1.188,-1.246c0.51,-0.299 1.102,-0.448 1.776,-0.448c0.664,-0 1.243,0.154 1.734,0.462c0.492,0.299 0.874,0.719 1.148,1.26c0.273,0.532 0.409,1.153 0.409,1.862l0,0.602l-4.93,-0c0.018,0.476 0.191,0.863 0.519,1.162c0.328,0.299 0.728,0.448 1.202,0.448c0.482,-0 0.837,-0.107 1.065,-0.322c0.228,-0.215 0.401,-0.453 0.519,-0.714l1.407,0.756c-0.128,0.243 -0.314,0.509 -0.56,0.798c-0.237,0.28 -0.556,0.523 -0.956,0.728c-0.401,0.196 -0.911,0.294 -1.53,0.294Zm-1.653,-4.466l3.169,-0c-0.036,-0.401 -0.196,-0.723 -0.478,-0.966c-0.273,-0.243 -0.633,-0.364 -1.079,-0.364c-0.464,-0 -0.833,0.121 -1.106,0.364c-0.273,0.243 -0.442,0.565 -0.506,0.966Zm8.817,4.27c-0.446,-0 -0.81,-0.14 -1.092,-0.42c-0.273,-0.289 -0.41,-0.672 -0.41,-1.148l-0,-3.92l-1.694,-0l0,-1.456l1.694,-0l-0,-2.156l1.721,-0l-0,2.156l1.857,-0l0,1.456l-1.857,-0l-0,3.612c-0,0.28 0.127,0.42 0.382,0.42l1.312,-0l-0,1.456l-1.913,-0Zm6.774,-0l0,-1.624l1.257,-0l-0,-6.552l-1.257,-0l0,-1.624l3.934,-0c1.284,-0 2.258,0.336 2.923,1.008c0.673,0.663 1.01,1.652 1.01,2.968l0,1.848c0,1.316 -0.337,2.31 -1.01,2.982c-0.665,0.663 -1.639,0.994 -2.923,0.994l-3.934,-0Zm3.06,-1.68l0.901,-0c0.728,-0 1.261,-0.196 1.598,-0.588c0.337,-0.392 0.505,-0.943 0.505,-1.652l0,-1.96c0,-0.719 -0.168,-1.269 -0.505,-1.652c-0.337,-0.392 -0.87,-0.588 -1.598,-0.588l-0.901,-0l-0,6.44Zm6.365,1.68l-0,-6.944l1.72,-0l0,6.944l-1.72,-0Zm0.86,-7.756c-0.31,-0 -0.574,-0.103 -0.792,-0.308c-0.21,-0.205 -0.314,-0.476 -0.314,-0.812c-0,-0.336 0.104,-0.607 0.314,-0.812c0.218,-0.205 0.482,-0.308 0.792,-0.308c0.319,-0 0.583,0.103 0.792,0.308c0.21,0.205 0.314,0.476 0.314,0.812c0,0.336 -0.104,0.607 -0.314,0.812c-0.209,0.205 -0.473,0.308 -0.792,0.308Zm2.767,7.756l0,-6.944l1.694,-0l0,0.784l0.246,-0c0.1,-0.28 0.264,-0.485 0.492,-0.616c0.236,-0.131 0.509,-0.196 0.819,-0.196l0.82,-0l-0,1.568l-0.847,-0c-0.437,-0 -0.797,0.121 -1.079,0.364c-0.283,0.233 -0.424,0.597 -0.424,1.092l0,3.948l-1.721,-0Zm8.262,0.196c-0.674,-0 -1.27,-0.145 -1.789,-0.434c-0.51,-0.299 -0.91,-0.714 -1.202,-1.246c-0.282,-0.541 -0.423,-1.176 -0.423,-1.904l-0,-0.168c-0,-0.728 0.141,-1.358 0.423,-1.89c0.282,-0.541 0.678,-0.957 1.188,-1.246c0.51,-0.299 1.102,-0.448 1.776,-0.448c0.665,-0 1.243,0.154 1.735,0.462c0.491,0.299 0.874,0.719 1.147,1.26c0.273,0.532 0.41,1.153 0.41,1.862l-0,0.602l-4.931,-0c0.018,0.476 0.191,0.863 0.519,1.162c0.328,0.299 0.728,0.448 1.202,0.448c0.483,-0 0.838,-0.107 1.065,-0.322c0.228,-0.215 0.401,-0.453 0.519,-0.714l1.407,0.756c-0.127,0.243 -0.314,0.509 -0.56,0.798c-0.237,0.28 -0.555,0.523 -0.956,0.728c-0.401,0.196 -0.911,0.294 -1.53,0.294Zm-1.652,-4.466l3.168,-0c-0.036,-0.401 -0.195,-0.723 -0.478,-0.966c-0.273,-0.243 -0.633,-0.364 -1.079,-0.364c-0.464,-0 -0.833,0.121 -1.106,0.364c-0.273,0.243 -0.442,0.565 -0.505,0.966Zm9.631,4.466c-0.656,-0 -1.252,-0.14 -1.79,-0.42c-0.528,-0.28 -0.947,-0.686 -1.256,-1.218c-0.31,-0.532 -0.464,-1.176 -0.464,-1.932l-0,-0.196c-0,-0.756 0.154,-1.4 0.464,-1.932c0.309,-0.532 0.728,-0.938 1.256,-1.218c0.538,-0.28 1.134,-0.42 1.79,-0.42c0.646,-0 1.202,0.117 1.666,0.35c0.464,0.233 0.838,0.555 1.12,0.966c0.291,0.401 0.482,0.859 0.574,1.372l-1.667,0.364c-0.036,-0.28 -0.118,-0.532 -0.246,-0.756c-0.127,-0.224 -0.309,-0.401 -0.546,-0.532c-0.228,-0.131 -0.514,-0.196 -0.86,-0.196c-0.346,-0 -0.661,0.079 -0.943,0.238c-0.273,0.149 -0.492,0.378 -0.655,0.686c-0.155,0.299 -0.233,0.667 -0.233,1.106l0,0.14c0,0.439 0.078,0.812 0.233,1.12c0.163,0.299 0.382,0.527 0.655,0.686c0.282,0.149 0.597,0.224 0.943,0.224c0.519,-0 0.91,-0.135 1.174,-0.406c0.273,-0.28 0.446,-0.644 0.519,-1.092l1.666,0.406c-0.118,0.495 -0.323,0.947 -0.614,1.358c-0.282,0.401 -0.656,0.719 -1.12,0.952c-0.464,0.233 -1.02,0.35 -1.666,0.35Zm7.188,-0.196c-0.446,-0 -0.81,-0.14 -1.092,-0.42c-0.273,-0.289 -0.41,-0.672 -0.41,-1.148l-0,-3.92l-1.694,-0l0,-1.456l1.694,-0l-0,-2.156l1.721,-0l-0,2.156l1.857,-0l0,1.456l-1.857,-0l-0,3.612c-0,0.28 0.127,0.42 0.382,0.42l1.311,-0l0,1.456l-1.912,-0Zm3.634,-0l0,-6.944l1.721,-0l-0,6.944l-1.721,-0Zm0.861,-7.756c-0.31,-0 -0.574,-0.103 -0.793,-0.308c-0.209,-0.205 -0.314,-0.476 -0.314,-0.812c0,-0.336 0.105,-0.607 0.314,-0.812c0.219,-0.205 0.483,-0.308 0.793,-0.308c0.318,-0 0.582,0.103 0.792,0.308c0.209,0.205 0.314,0.476 0.314,0.812c-0,0.336 -0.105,0.607 -0.314,0.812c-0.21,0.205 -0.474,0.308 -0.792,0.308Zm5.99,7.952c-0.673,-0 -1.279,-0.14 -1.816,-0.42c-0.537,-0.28 -0.961,-0.686 -1.27,-1.218c-0.31,-0.532 -0.465,-1.171 -0.465,-1.918l0,-0.224c0,-0.747 0.155,-1.386 0.465,-1.918c0.309,-0.532 0.733,-0.938 1.27,-1.218c0.537,-0.28 1.143,-0.42 1.816,-0.42c0.674,-0 1.28,0.14 1.817,0.42c0.537,0.28 0.96,0.686 1.27,1.218c0.31,0.532 0.465,1.171 0.465,1.918l-0,0.224c-0,0.747 -0.155,1.386 -0.465,1.918c-0.31,0.532 -0.733,0.938 -1.27,1.218c-0.537,0.28 -1.143,0.42 -1.817,0.42Zm0,-1.568c0.528,-0 0.965,-0.173 1.312,-0.518c0.346,-0.355 0.519,-0.859 0.519,-1.512l-0,-0.14c-0,-0.653 -0.173,-1.153 -0.519,-1.498c-0.337,-0.355 -0.774,-0.532 -1.312,-0.532c-0.528,-0 -0.965,0.177 -1.311,0.532c-0.346,0.345 -0.519,0.845 -0.519,1.498l0,0.14c0,0.653 0.173,1.157 0.519,1.512c0.346,0.345 0.783,0.518 1.311,0.518Zm5.14,1.372l-0,-6.944l1.693,-0l0,0.91l0.246,-0c0.11,-0.243 0.314,-0.471 0.615,-0.686c0.3,-0.224 0.756,-0.336 1.366,-0.336c0.528,-0 0.988,0.126 1.379,0.378c0.401,0.243 0.71,0.583 0.929,1.022c0.218,0.429 0.328,0.933 0.328,1.512l-0,4.144l-1.721,-0l-0,-4.004c-0,-0.523 -0.128,-0.915 -0.383,-1.176c-0.245,-0.261 -0.601,-0.392 -1.065,-0.392c-0.528,-0 -0.937,0.182 -1.229,0.546c-0.292,0.355 -0.437,0.854 -0.437,1.498l-0,3.528l-1.721,-0Zm11.23,0.196c-0.883,-0 -1.607,-0.196 -2.172,-0.588c-0.565,-0.392 -0.906,-0.952 -1.024,-1.68l1.584,-0.42c0.063,0.327 0.169,0.583 0.314,0.77c0.155,0.187 0.342,0.322 0.56,0.406c0.227,0.075 0.473,0.112 0.738,0.112c0.401,-0 0.696,-0.07 0.887,-0.21c0.192,-0.149 0.287,-0.331 0.287,-0.546c0,-0.215 -0.09,-0.378 -0.273,-0.49c-0.182,-0.121 -0.473,-0.219 -0.874,-0.294l-0.382,-0.07c-0.474,-0.093 -0.907,-0.219 -1.298,-0.378c-0.391,-0.168 -0.705,-0.397 -0.942,-0.686c-0.237,-0.289 -0.355,-0.663 -0.355,-1.12c-0,-0.691 0.245,-1.218 0.737,-1.582c0.492,-0.373 1.139,-0.56 1.94,-0.56c0.756,-0 1.384,0.173 1.884,0.518c0.501,0.345 0.829,0.798 0.984,1.358l-1.598,0.504c-0.073,-0.355 -0.224,-0.607 -0.451,-0.756c-0.218,-0.149 -0.492,-0.224 -0.819,-0.224c-0.328,-0 -0.579,0.061 -0.752,0.182c-0.172,0.112 -0.259,0.271 -0.259,0.476c-0,0.224 0.091,0.392 0.273,0.504c0.182,0.103 0.428,0.182 0.738,0.238l0.382,0.07c0.51,0.093 0.97,0.219 1.379,0.378c0.419,0.149 0.747,0.369 0.984,0.658c0.246,0.28 0.369,0.663 0.369,1.148c-0,0.728 -0.26,1.293 -0.779,1.694c-0.51,0.392 -1.197,0.588 -2.062,0.588Z" style="fill-rule:nonzero;"/><rect x="5.389" y="1.48" width="127.8" height="44" style="fill:none;stroke:#000;stroke-width:1.98px;"/></g></g></svg>