<svg width="162" height="162" viewBox="0 0 162 162" fill="none" xmlns="http://www.w3.org/2000/svg">
<g clip-path="url(#clip0_15_468)">
<path d="M82.4493 105.75C96.9712 105.75 108.743 93.9779 108.743 79.4559C108.743 64.934 96.9712 53.1617 82.4493 53.1617C67.9274 53.1617 56.155 64.934 56.155 79.4559C56.155 93.9779 67.9274 105.75 82.4493 105.75Z" fill="#A0616A"/>
<path d="M60.6855 111.638L66.1667 97.6305L94.4863 93.3673L97.529 124.375L68.905 124.984L60.6855 111.638Z" fill="#A0616A"/>
<path d="M108.998 84.3074C108.657 85.6745 107.967 88.9298 106.89 88.9458C106.01 88.9586 105.167 74.8364 106.047 72.5005C107.056 69.8169 104.403 66.4222 102.403 64.6796C98.8088 61.5464 90.8298 68.2743 82.7163 65.2265C82.5012 65.1459 82.5441 65.1549 79.982 64.1328C72.0983 60.9873 71.6839 60.8965 71.2322 60.8516C67.4104 60.4735 62.7464 63.6009 60.8418 67.4139C58.862 71.3776 60.5162 74.7773 58.6544 84.3666C58.4374 85.4844 58.0967 87.0774 57.5607 87.1009C56.5807 87.1437 55.6238 81.9095 55.3732 80.5386C54.3233 74.795 53.311 69.2575 55.3732 63.039C55.5982 62.3608 56.9846 59.8433 59.7481 54.8361C63.7294 47.6228 65.7318 44.0025 66.3104 43.352C70.4605 38.685 78.0146 34.4276 84.3569 36.2428C87.5625 37.1603 86.9877 38.6353 90.9192 40.0709C97.9255 42.6289 104.015 39.5005 105.138 41.7114C105.733 42.8826 104.068 43.8482 104.044 46.0863C104.002 49.9267 108.86 51.0364 111.7 54.8361C113.227 56.8788 115.841 56.9008 108.998 84.3074Z" fill="#2F2E41"/>
<path d="M141.573 134.78C140.514 135.971 139.414 137.137 138.276 138.276C122.977 153.574 102.636 162 81 162C62.3 162 44.5683 155.706 30.2227 144.119C30.2136 144.113 30.2075 144.107 30.1984 144.098C28.2952 142.563 26.4529 140.931 24.6746 139.207C24.708 138.94 24.7446 138.675 24.7841 138.413C25.0339 136.646 25.311 134.962 25.6215 133.413C28.1642 120.708 61.6209 107.371 62.4918 107.024C62.504 107.021 62.5101 107.018 62.5101 107.018C62.5101 107.018 66.8159 122.889 85.2662 122.685C97.8334 122.548 95.3973 107.018 95.3973 107.018C95.3973 107.018 95.5496 107.048 95.8358 107.109C99.4655 107.879 124.667 113.415 134.609 120.97C137.639 123.272 139.813 128.175 141.375 134.022C141.442 134.271 141.506 134.527 141.573 134.78Z" fill="#F9A826"/>
<path d="M138.276 23.7245C122.977 8.4261 102.636 0 81 0C59.3645 0 39.0232 8.4261 23.7244 23.7245C8.42588 39.0232 0 59.3645 0 81C0 100.748 7.019 119.417 19.8816 134.159C21.1087 135.568 22.3907 136.942 23.7244 138.276C24.0381 138.589 24.3548 138.903 24.6746 139.207C26.4529 140.931 28.2952 142.563 30.1984 144.098C30.2075 144.107 30.2136 144.113 30.2227 144.119C44.5683 155.706 62.3 162 81 162C102.636 162 122.977 153.574 138.276 138.276C139.414 137.137 140.514 135.971 141.573 134.78C154.78 119.944 162 101.028 162 81C162 59.3645 153.574 39.0232 138.276 23.7245ZM141.375 134.022C138.979 136.747 136.403 139.311 133.662 141.689C128.464 146.211 122.678 150.072 116.439 153.148C114.25 154.229 112.005 155.212 109.709 156.093C100.79 159.515 91.1098 161.391 81 161.391C71.2434 161.391 61.8889 159.643 53.2316 156.446C49.6779 155.136 46.2431 153.58 42.9452 151.799C42.461 151.537 41.98 151.272 41.5019 151.001C38.9866 149.576 36.5535 148.02 34.218 146.339C30.8714 143.94 27.7166 141.287 24.7841 138.413C23.1398 136.802 21.5686 135.124 20.0673 133.379C7.94473 119.299 0.609023 100.991 0.609023 81C0.609023 36.6725 36.6723 0.609023 81 0.609023C125.328 0.609023 161.391 36.6725 161.391 81C161.391 101.299 153.83 119.862 141.375 134.022Z" fill="#3F3D56"/>
</g>
<defs>
<clipPath id="clip0_15_468">
<rect width="162" height="162" fill="white"/>
</clipPath>
</defs>
</svg>
