<?xml version="1.0" encoding="UTF-8" standalone="no"?>
<!DOCTYPE svg PUBLIC "-//W3C//DTD SVG 1.1//EN" "http://www.w3.org/Graphics/SVG/1.1/DTD/svg11.dtd">
<svg width="100%" height="100%" viewBox="0 0 96 51" version="1.1" xmlns="http://www.w3.org/2000/svg" xmlns:xlink="http://www.w3.org/1999/xlink" xml:space="preserve" xmlns:serif="http://www.serif.com/" style="fill-rule:evenodd;clip-rule:evenodd;">
    <g transform="matrix(1,0,0,1,-1677,-317)">
        <g transform="matrix(0.417386,0,0,0.417386,0,0)">
            <g id="false.svg" transform="matrix(2.30372,0,0,2.30372,4132.61,820.536)">
                <g transform="matrix(1,0,0,1,-49.5,-26)">
                    <clipPath id="_clip1">
                        <rect x="0" y="0" width="99" height="52"/>
                    </clipPath>
                    <g clip-path="url(#_clip1)">
                        <g transform="matrix(1.02151,0,0,1.04348,-0.0860215,-2.08696)">
                            <g transform="matrix(1,0,0,1,-3.91579,3.83333)">
                                <rect x="4" y="2" width="93" height="46"/>
                            </g>
                            <rect x="4" y="2" width="93" height="46" style="fill:white;"/>
                            <path d="M26.375,30.196C25.619,30.196 24.952,30.061 24.373,29.79C23.794,29.519 23.342,29.132 23.015,28.628C22.688,28.124 22.525,27.517 22.525,26.808L22.525,26.416L24.345,26.416L24.345,26.808C24.345,27.396 24.527,27.839 24.891,28.138C25.255,28.427 25.75,28.572 26.375,28.572C27.01,28.572 27.481,28.446 27.789,28.194C28.106,27.942 28.265,27.62 28.265,27.228C28.265,26.957 28.186,26.738 28.027,26.57C27.878,26.402 27.654,26.267 27.355,26.164C27.066,26.052 26.711,25.949 26.291,25.856L25.969,25.786C25.297,25.637 24.718,25.45 24.233,25.226C23.757,24.993 23.388,24.689 23.127,24.316C22.875,23.943 22.749,23.457 22.749,22.86C22.749,22.263 22.889,21.754 23.169,21.334C23.458,20.905 23.86,20.578 24.373,20.354C24.895,20.121 25.507,20.004 26.207,20.004C26.907,20.004 27.528,20.125 28.069,20.368C28.619,20.601 29.049,20.956 29.357,21.432C29.674,21.899 29.833,22.487 29.833,23.196L29.833,23.616L28.013,23.616L28.013,23.196C28.013,22.823 27.938,22.524 27.789,22.3C27.649,22.067 27.444,21.899 27.173,21.796C26.902,21.684 26.58,21.628 26.207,21.628C25.647,21.628 25.232,21.735 24.961,21.95C24.7,22.155 24.569,22.44 24.569,22.804C24.569,23.047 24.63,23.252 24.751,23.42C24.882,23.588 25.073,23.728 25.325,23.84C25.577,23.952 25.899,24.05 26.291,24.134L26.613,24.204C27.313,24.353 27.92,24.545 28.433,24.778C28.956,25.011 29.362,25.319 29.651,25.702C29.94,26.085 30.085,26.575 30.085,27.172C30.085,27.769 29.931,28.297 29.623,28.754C29.324,29.202 28.895,29.557 28.335,29.818C27.784,30.07 27.131,30.196 26.375,30.196ZM31.519,30L31.519,23.056L33.283,23.056L33.283,30L31.519,30ZM32.401,22.244C32.084,22.244 31.813,22.141 31.589,21.936C31.374,21.731 31.267,21.46 31.267,21.124C31.267,20.788 31.374,20.517 31.589,20.312C31.813,20.107 32.084,20.004 32.401,20.004C32.728,20.004 32.998,20.107 33.213,20.312C33.428,20.517 33.535,20.788 33.535,21.124C33.535,21.46 33.428,21.731 33.213,21.936C32.998,22.141 32.728,22.244 32.401,22.244ZM34.902,26.556L34.902,26.332C34.902,25.604 35.047,24.983 35.336,24.47C35.625,23.947 36.008,23.551 36.484,23.28C36.969,23 37.497,22.86 38.066,22.86C38.701,22.86 39.181,22.972 39.508,23.196C39.835,23.42 40.073,23.653 40.222,23.896L40.474,23.896L40.474,23.056L42.21,23.056L42.21,31.232C42.21,31.708 42.07,32.086 41.79,32.366C41.51,32.655 41.137,32.8 40.67,32.8L36.022,32.8L36.022,31.26L40.054,31.26C40.315,31.26 40.446,31.12 40.446,30.84L40.446,29.034L40.194,29.034C40.1,29.183 39.97,29.337 39.802,29.496C39.634,29.645 39.41,29.771 39.13,29.874C38.85,29.977 38.495,30.028 38.066,30.028C37.497,30.028 36.969,29.893 36.484,29.622C36.008,29.342 35.625,28.945 35.336,28.432C35.047,27.909 34.902,27.284 34.902,26.556ZM38.57,28.488C39.111,28.488 39.564,28.315 39.928,27.97C40.292,27.625 40.474,27.139 40.474,26.514L40.474,26.374C40.474,25.739 40.292,25.254 39.928,24.918C39.573,24.573 39.121,24.4 38.57,24.4C38.029,24.4 37.576,24.573 37.212,24.918C36.848,25.254 36.666,25.739 36.666,26.374L36.666,26.514C36.666,27.139 36.848,27.625 37.212,27.97C37.576,28.315 38.029,28.488 38.57,28.488ZM44.166,30L44.166,23.056L45.902,23.056L45.902,23.966L46.154,23.966C46.266,23.723 46.475,23.495 46.783,23.28C47.092,23.056 47.558,22.944 48.184,22.944C48.725,22.944 49.196,23.07 49.597,23.322C50.008,23.565 50.326,23.905 50.55,24.344C50.774,24.773 50.886,25.277 50.886,25.856L50.886,30L49.122,30L49.122,25.996C49.122,25.473 48.991,25.081 48.73,24.82C48.478,24.559 48.114,24.428 47.638,24.428C47.096,24.428 46.676,24.61 46.378,24.974C46.079,25.329 45.93,25.828 45.93,26.472L45.93,30L44.166,30ZM59.651,30.196C58.961,30.196 58.34,30.056 57.789,29.776C57.239,29.496 56.804,29.09 56.487,28.558C56.17,28.026 56.011,27.387 56.011,26.64L56.011,26.416C56.011,25.669 56.17,25.03 56.487,24.498C56.804,23.966 57.239,23.56 57.789,23.28C58.34,23 58.961,22.86 59.651,22.86C60.342,22.86 60.963,23 61.513,23.28C62.064,23.56 62.498,23.966 62.815,24.498C63.133,25.03 63.291,25.669 63.291,26.416L63.291,26.64C63.291,27.387 63.133,28.026 62.815,28.558C62.498,29.09 62.064,29.496 61.513,29.776C60.963,30.056 60.342,30.196 59.651,30.196ZM59.651,28.628C60.193,28.628 60.641,28.455 60.995,28.11C61.35,27.755 61.527,27.251 61.527,26.598L61.527,26.458C61.527,25.805 61.35,25.305 60.995,24.96C60.65,24.605 60.202,24.428 59.651,24.428C59.11,24.428 58.662,24.605 58.307,24.96C57.953,25.305 57.775,25.805 57.775,26.458L57.775,26.598C57.775,27.251 57.953,27.755 58.307,28.11C58.662,28.455 59.11,28.628 59.651,28.628ZM67.566,30.112C67.024,30.112 66.548,29.991 66.138,29.748C65.736,29.496 65.424,29.151 65.2,28.712C64.975,28.273 64.864,27.769 64.864,27.2L64.864,23.056L66.628,23.056L66.628,27.06C66.628,27.583 66.754,27.975 67.006,28.236C67.267,28.497 67.635,28.628 68.112,28.628C68.653,28.628 69.073,28.451 69.372,28.096C69.67,27.732 69.82,27.228 69.82,26.584L69.82,23.056L71.584,23.056L71.584,30L69.848,30L69.848,29.09L69.596,29.09C69.484,29.323 69.274,29.552 68.966,29.776C68.658,30 68.191,30.112 67.566,30.112ZM76.206,30C75.749,30 75.376,29.86 75.086,29.58C74.806,29.291 74.666,28.908 74.666,28.432L74.666,24.512L72.93,24.512L72.93,23.056L74.666,23.056L74.666,20.9L76.43,20.9L76.43,23.056L78.334,23.056L78.334,24.512L76.43,24.512L76.43,28.124C76.43,28.404 76.561,28.544 76.822,28.544L78.166,28.544L78.166,30L76.206,30Z" style="fill-rule:nonzero;"/>
                            <rect x="5" y="3" width="91" height="44" style="fill:none;stroke:black;stroke-width:2px;"/>
                        </g>
                    </g>
                </g>
            </g>
        </g>
    </g>
</svg>
