<?xml version="1.0" encoding="UTF-8" standalone="no"?><!DOCTYPE svg PUBLIC "-//W3C//DTD SVG 1.1//EN" "http://www.w3.org/Graphics/SVG/1.1/DTD/svg11.dtd"><svg width="100%" height="100%" viewBox="0 0 133 51" version="1.1" xmlns="http://www.w3.org/2000/svg" xmlns:xlink="http://www.w3.org/1999/xlink" xml:space="preserve" xmlns:serif="http://www.serif.com/" style="fill-rule:evenodd;clip-rule:evenodd;"><clipPath id="_clip1"><rect id="false.svg" x="0.182" y="0.48" width="132.692" height="50"/></clipPath><g clip-path="url(#_clip1)"><rect x="0.182" y="4.326" width="128.846" height="46.154"/><g><rect x="4.028" y="0.48" width="128.846" height="46.154" style="fill:#fff;"/><path d="M25.084,28.573l0,-3.385l-3.252,-6.447l2.009,-0l2.022,4.214l0.246,-0l2.023,-4.214l2.009,-0l-3.253,6.447l0,3.385l-1.804,0Zm8.147,0.197c-0.674,0 -1.28,-0.14 -1.818,-0.421c-0.537,-0.281 -0.961,-0.689 -1.27,-1.222c-0.31,-0.534 -0.465,-1.176 -0.465,-1.925l-0,-0.224c-0,-0.75 0.155,-1.391 0.465,-1.925c0.309,-0.534 0.733,-0.941 1.27,-1.222c0.538,-0.281 1.144,-0.421 1.818,-0.421c0.674,-0 1.28,0.14 1.817,0.421c0.538,0.281 0.962,0.688 1.271,1.222c0.31,0.534 0.465,1.175 0.465,1.925l-0,0.224c-0,0.749 -0.155,1.391 -0.465,1.925c-0.309,0.533 -0.733,0.941 -1.271,1.222c-0.537,0.281 -1.143,0.421 -1.817,0.421Zm-0,-1.573c0.528,-0 0.966,-0.173 1.312,-0.52c0.346,-0.356 0.519,-0.861 0.519,-1.517l0,-0.14c0,-0.656 -0.173,-1.157 -0.519,-1.503c-0.337,-0.356 -0.775,-0.534 -1.312,-0.534c-0.528,-0 -0.966,0.178 -1.312,0.534c-0.346,0.346 -0.519,0.847 -0.519,1.503l-0,0.14c-0,0.656 0.173,1.161 0.519,1.517c0.346,0.347 0.784,0.52 1.312,0.52Zm7.725,1.489c-0.528,-0 -0.993,-0.122 -1.394,-0.365c-0.392,-0.253 -0.697,-0.6 -0.915,-1.04c-0.219,-0.44 -0.328,-0.946 -0.328,-1.517l-0,-4.158l1.722,0l-0,4.018c-0,0.524 0.123,0.917 0.368,1.18c0.256,0.262 0.615,0.393 1.08,0.393c0.528,-0 0.938,-0.178 1.23,-0.534c0.291,-0.365 0.437,-0.871 0.437,-1.517l0,-3.54l1.722,0l0,6.967l-1.694,0l-0,-0.913l-0.246,0c-0.11,0.235 -0.315,0.464 -0.615,0.689c-0.301,0.224 -0.757,0.337 -1.367,0.337Zm5.838,-0.113l0,-6.967l1.695,0l-0,0.787l0.246,-0c0.1,-0.281 0.264,-0.487 0.492,-0.618c0.236,-0.131 0.51,-0.197 0.82,-0.197l0.819,0l0,1.573l-0.847,0c-0.437,0 -0.797,0.122 -1.079,0.366c-0.283,0.234 -0.424,0.599 -0.424,1.095l-0,3.961l-1.722,0Zm8.833,0l0,-9.832l6.013,-0l0,1.685l-4.209,0l0,2.374l3.881,0l0,1.686l-3.881,-0l0,4.087l-1.804,0Zm9.353,0.197c-0.483,0 -0.916,-0.084 -1.299,-0.253c-0.382,-0.178 -0.687,-0.43 -0.915,-0.758c-0.219,-0.337 -0.328,-0.745 -0.328,-1.222c-0,-0.478 0.109,-0.876 0.328,-1.194c0.228,-0.328 0.537,-0.571 0.929,-0.731c0.401,-0.168 0.856,-0.253 1.367,-0.253l1.858,0l0,-0.393c0,-0.328 -0.1,-0.595 -0.301,-0.801c-0.2,-0.215 -0.519,-0.323 -0.956,-0.323c-0.428,0 -0.747,0.103 -0.957,0.309c-0.209,0.197 -0.346,0.455 -0.41,0.773l-1.585,-0.548c0.109,-0.356 0.283,-0.679 0.519,-0.969c0.246,-0.3 0.57,-0.539 0.971,-0.716c0.41,-0.188 0.906,-0.281 1.489,-0.281c0.893,-0 1.599,0.229 2.118,0.688c0.52,0.459 0.779,1.124 0.779,1.995l0,2.598c0,0.281 0.128,0.422 0.383,0.422l0.547,-0l-0,1.46l-1.148,0c-0.337,0 -0.615,-0.084 -0.834,-0.252c-0.219,-0.169 -0.328,-0.394 -0.328,-0.675l0,-0.014l-0.26,0c-0.036,0.113 -0.118,0.263 -0.246,0.45c-0.127,0.178 -0.328,0.337 -0.601,0.477c-0.273,0.141 -0.647,0.211 -1.12,0.211Zm0.3,-1.433c0.483,0 0.875,-0.135 1.175,-0.407c0.31,-0.281 0.465,-0.651 0.465,-1.11l0,-0.14l-1.735,-0c-0.319,-0 -0.57,0.07 -0.752,0.211c-0.182,0.14 -0.273,0.337 -0.273,0.59c-0,0.252 0.095,0.458 0.287,0.618c0.191,0.159 0.469,0.238 0.833,0.238Zm6.53,1.236l-2.159,-6.967l1.831,0l1.571,5.675l0.246,0l1.572,-5.675l1.831,0l-2.159,6.967l-2.733,0Zm9.09,0.197c-0.674,0 -1.28,-0.14 -1.818,-0.421c-0.537,-0.281 -0.961,-0.689 -1.27,-1.222c-0.31,-0.534 -0.465,-1.176 -0.465,-1.925l-0,-0.224c-0,-0.75 0.155,-1.391 0.465,-1.925c0.309,-0.534 0.733,-0.941 1.27,-1.222c0.538,-0.281 1.144,-0.421 1.818,-0.421c0.674,-0 1.28,0.14 1.817,0.421c0.538,0.281 0.962,0.688 1.271,1.222c0.31,0.534 0.465,1.175 0.465,1.925l0,0.224c0,0.749 -0.155,1.391 -0.465,1.925c-0.309,0.533 -0.733,0.941 -1.271,1.222c-0.537,0.281 -1.143,0.421 -1.817,0.421Zm-0,-1.573c0.528,-0 0.966,-0.173 1.312,-0.52c0.346,-0.356 0.519,-0.861 0.519,-1.517l0,-0.14c0,-0.656 -0.173,-1.157 -0.519,-1.503c-0.337,-0.356 -0.774,-0.534 -1.312,-0.534c-0.528,-0 -0.966,0.178 -1.312,0.534c-0.346,0.346 -0.519,0.847 -0.519,1.503l-0,0.14c-0,0.656 0.173,1.161 0.519,1.517c0.346,0.347 0.784,0.52 1.312,0.52Zm5.142,1.376l0,-6.967l1.695,0l-0,0.787l0.246,-0c0.1,-0.281 0.264,-0.487 0.492,-0.618c0.237,-0.131 0.51,-0.197 0.82,-0.197l0.82,0l-0,1.573l-0.848,0c-0.437,0 -0.797,0.122 -1.079,0.366c-0.282,0.234 -0.424,0.599 -0.424,1.095l0,3.961l-1.722,0Zm5.419,0l-0,-6.967l1.721,0l0,6.967l-1.721,0Zm0.861,-7.781c-0.31,-0 -0.574,-0.103 -0.793,-0.309c-0.21,-0.206 -0.314,-0.478 -0.314,-0.815c-0,-0.337 0.104,-0.609 0.314,-0.815c0.219,-0.206 0.483,-0.309 0.793,-0.309c0.318,0 0.583,0.103 0.792,0.309c0.21,0.206 0.314,0.478 0.314,0.815c0,0.337 -0.104,0.609 -0.314,0.815c-0.209,0.206 -0.474,0.309 -0.792,0.309Zm5.365,7.781c-0.446,0 -0.811,-0.14 -1.093,-0.421c-0.274,-0.29 -0.41,-0.674 -0.41,-1.152l-0,-3.933l-1.695,0l0,-1.461l1.695,0l-0,-2.163l1.722,0l0,2.163l1.859,0l-0,1.461l-1.859,0l0,3.624c0,0.281 0.127,0.422 0.383,0.422l1.312,-0l-0,1.46l-1.914,0Zm6.484,0.197c-0.674,0 -1.271,-0.145 -1.791,-0.435c-0.509,-0.3 -0.91,-0.717 -1.202,-1.25c-0.282,-0.544 -0.424,-1.18 -0.424,-1.911l0,-0.168c0,-0.731 0.142,-1.363 0.424,-1.897c0.283,-0.543 0.679,-0.96 1.189,-1.25c0.51,-0.3 1.103,-0.449 1.776,-0.449c0.666,-0 1.244,0.154 1.736,0.463c0.492,0.3 0.874,0.721 1.148,1.264c0.273,0.534 0.41,1.157 0.41,1.869l-0,0.604l-4.934,-0c0.019,0.477 0.192,0.866 0.52,1.165c0.328,0.3 0.729,0.45 1.202,0.45c0.484,-0 0.839,-0.108 1.066,-0.323c0.229,-0.216 0.401,-0.454 0.52,-0.716l1.407,0.758c-0.127,0.244 -0.314,0.51 -0.56,0.801c-0.236,0.281 -0.556,0.524 -0.957,0.73c-0.4,0.197 -0.91,0.295 -1.53,0.295Zm-1.654,-4.481l3.171,0c-0.037,-0.402 -0.196,-0.726 -0.479,-0.969c-0.273,-0.244 -0.632,-0.365 -1.079,-0.365c-0.465,-0 -0.834,0.121 -1.107,0.365c-0.274,0.243 -0.441,0.567 -0.506,0.969Zm9.267,4.481c-0.883,0 -1.607,-0.197 -2.173,-0.59c-0.564,-0.393 -0.905,-0.955 -1.024,-1.685l1.585,-0.422c0.064,0.328 0.169,0.585 0.314,0.773c0.155,0.187 0.342,0.323 0.56,0.407c0.229,0.075 0.475,0.112 0.738,0.112c0.401,0 0.697,-0.07 0.889,-0.21c0.191,-0.15 0.287,-0.333 0.287,-0.548c-0,-0.215 -0.091,-0.379 -0.274,-0.492c-0.181,-0.121 -0.473,-0.22 -0.874,-0.295l-0.383,-0.07c-0.473,-0.094 -0.906,-0.22 -1.298,-0.379c-0.392,-0.169 -0.706,-0.398 -0.943,-0.688c-0.236,-0.291 -0.355,-0.665 -0.355,-1.124c-0,-0.693 0.246,-1.222 0.737,-1.588c0.492,-0.374 1.14,-0.561 1.941,-0.561c0.756,-0 1.385,0.173 1.886,0.519c0.502,0.347 0.83,0.801 0.984,1.363l-1.599,0.506c-0.072,-0.356 -0.223,-0.609 -0.451,-0.759c-0.219,-0.15 -0.492,-0.225 -0.82,-0.225c-0.328,0 -0.578,0.061 -0.752,0.183c-0.172,0.112 -0.259,0.272 -0.259,0.477c-0,0.225 0.092,0.394 0.273,0.506c0.183,0.103 0.429,0.183 0.738,0.239l0.383,0.07c0.51,0.094 0.97,0.22 1.38,0.379c0.42,0.15 0.748,0.37 0.984,0.661c0.246,0.281 0.369,0.665 0.369,1.152c-0,0.73 -0.26,1.297 -0.779,1.699c-0.51,0.393 -1.198,0.59 -2.064,0.59Z" style="fill-rule:nonzero;"/><rect x="5.004" y="1.483" width="126.894" height="44.147" style="fill:none;stroke:#000;stroke-width:1.98px;"/></g></g></svg>