<?xml version="1.0" encoding="UTF-8" standalone="no"?><!DOCTYPE svg PUBLIC "-//W3C//DTD SVG 1.1//EN" "http://www.w3.org/Graphics/SVG/1.1/DTD/svg11.dtd"><svg width="100%" height="100%" viewBox="0 0 97 51" version="1.1" xmlns="http://www.w3.org/2000/svg" xmlns:xlink="http://www.w3.org/1999/xlink" xml:space="preserve" xmlns:serif="http://www.serif.com/" style="fill-rule:evenodd;clip-rule:evenodd;"><clipPath id="_clip1"><rect id="false.svg" x="0.961" y="0.48" width="95.192" height="50"/></clipPath><g clip-path="url(#_clip1)"><g><rect x="0.961" y="4.48" width="91.267" height="46"/><rect x="4.886" y="0.48" width="91.267" height="46" style="fill:#fff;"/><path d="M23.506,28.48l-0,-9.8l6.182,-0l0,1.68l-4.369,-0l0,2.338l3.985,-0l-0,1.68l-3.985,-0l0,2.422l4.452,-0l-0,1.68l-6.265,-0Zm10.41,0.196c-0.54,-0 -1.049,-0.135 -1.525,-0.406c-0.467,-0.28 -0.843,-0.686 -1.127,-1.218c-0.284,-0.532 -0.426,-1.176 -0.426,-1.932l0,-0.224c0,-0.756 0.142,-1.4 0.426,-1.932c0.284,-0.532 0.66,-0.933 1.127,-1.204c0.467,-0.28 0.975,-0.42 1.525,-0.42c0.412,-0 0.756,0.051 1.03,0.154c0.284,0.093 0.513,0.215 0.687,0.364c0.174,0.149 0.307,0.308 0.399,0.476l0.247,-0l0,-3.654l1.731,-0l0,9.8l-1.703,-0l-0,-0.84l-0.248,-0c-0.155,0.261 -0.398,0.499 -0.728,0.714c-0.321,0.215 -0.792,0.322 -1.415,0.322Zm0.522,-1.54c0.531,-0 0.976,-0.173 1.333,-0.518c0.357,-0.355 0.536,-0.868 0.536,-1.54l-0,-0.14c-0,-0.672 -0.179,-1.181 -0.536,-1.526c-0.348,-0.355 -0.793,-0.532 -1.333,-0.532c-0.531,-0 -0.975,0.177 -1.333,0.532c-0.357,0.345 -0.535,0.854 -0.535,1.526l-0,0.14c-0,0.672 0.178,1.185 0.535,1.54c0.358,0.345 0.802,0.518 1.333,0.518Zm5.491,1.344l0,-6.944l1.732,-0l-0,6.944l-1.732,-0Zm0.866,-7.756c-0.311,-0 -0.577,-0.103 -0.797,-0.308c-0.211,-0.205 -0.316,-0.476 -0.316,-0.812c0,-0.336 0.105,-0.607 0.316,-0.812c0.22,-0.205 0.486,-0.308 0.797,-0.308c0.321,-0 0.586,0.103 0.797,0.308c0.211,0.205 0.316,0.476 0.316,0.812c-0,0.336 -0.105,0.607 -0.316,0.812c-0.211,0.205 -0.476,0.308 -0.797,0.308Zm5.394,7.756c-0.448,-0 -0.815,-0.14 -1.099,-0.42c-0.275,-0.289 -0.412,-0.672 -0.412,-1.148l0,-3.92l-1.704,-0l0,-1.456l1.704,-0l0,-2.156l1.731,-0l0,2.156l1.869,-0l-0,1.456l-1.869,-0l0,3.612c0,0.28 0.128,0.42 0.385,0.42l1.319,-0l-0,1.456l-1.924,-0Zm7.089,-0l0,-9.8l1.814,-0l-0,9.8l-1.814,-0Zm3.678,-0l-0,-6.944l1.703,-0l0,0.91l0.248,-0c0.11,-0.243 0.316,-0.471 0.618,-0.686c0.302,-0.224 0.76,-0.336 1.374,-0.336c0.531,-0 0.994,0.126 1.388,0.378c0.403,0.243 0.714,0.583 0.934,1.022c0.22,0.429 0.33,0.933 0.33,1.512l-0,4.144l-1.732,-0l0,-4.004c0,-0.523 -0.128,-0.915 -0.384,-1.176c-0.248,-0.261 -0.605,-0.392 -1.072,-0.392c-0.531,-0 -0.943,0.182 -1.236,0.546c-0.294,0.355 -0.44,0.854 -0.44,1.498l-0,3.528l-1.731,-0Zm9.405,-0l-0,-5.488l-1.731,-0l-0,-1.456l1.731,-0l-0,-1.288c-0,-0.476 0.137,-0.854 0.412,-1.134c0.284,-0.289 0.65,-0.434 1.099,-0.434l1.786,-0l0,1.456l-1.181,-0c-0.257,-0 -0.385,0.14 -0.385,0.42l-0,0.98l1.786,-0l-0,1.456l-1.786,-0l-0,5.488l-1.731,-0Zm7.871,0.196c-0.677,-0 -1.286,-0.14 -1.827,-0.42c-0.54,-0.28 -0.966,-0.686 -1.278,-1.218c-0.311,-0.532 -0.467,-1.171 -0.467,-1.918l0,-0.224c0,-0.747 0.156,-1.386 0.467,-1.918c0.312,-0.532 0.738,-0.938 1.278,-1.218c0.541,-0.28 1.15,-0.42 1.827,-0.42c0.678,-0 1.287,0.14 1.828,0.42c0.54,0.28 0.966,0.686 1.278,1.218c0.311,0.532 0.467,1.171 0.467,1.918l-0,0.224c-0,0.747 -0.156,1.386 -0.467,1.918c-0.312,0.532 -0.738,0.938 -1.278,1.218c-0.541,0.28 -1.15,0.42 -1.828,0.42Zm0,-1.568c0.532,-0 0.971,-0.173 1.319,-0.518c0.349,-0.355 0.523,-0.859 0.523,-1.512l-0,-0.14c-0,-0.653 -0.174,-1.153 -0.523,-1.498c-0.338,-0.355 -0.778,-0.532 -1.319,-0.532c-0.531,-0 -0.97,0.177 -1.318,0.532c-0.349,0.345 -0.523,0.845 -0.523,1.498l0,0.14c0,0.653 0.174,1.157 0.523,1.512c0.348,0.345 0.787,0.518 1.318,0.518Z" style="fill-rule:nonzero;"/><rect x="5.868" y="1.48" width="89.304" height="44" style="fill:none;stroke:#000;stroke-width:1.98px;"/></g></g></svg>