<svg width="43" height="35" viewBox="0 0 43 35" fill="none" xmlns="http://www.w3.org/2000/svg">
<path d="M42.0387 34.0619C41.704 34.5398 41.1932 34.8652 40.6186 34.9666C40.0439 35.0679 39.4526 34.9368 38.9746 34.6022L26.9718 26.2512C26.4938 25.9166 26.1684 25.4058 26.0671 24.8312C25.9657 24.2566 26.0968 23.6653 26.4315 23.1874C26.7661 22.7094 27.277 22.384 27.8517 22.2827C28.4263 22.1814 29.0176 22.3125 29.4956 22.6471L41.4984 30.9981C41.9764 31.3327 42.3018 31.8435 42.4031 32.4181C42.5045 32.9927 42.3734 33.584 42.0387 34.0619Z" fill="black"/>
<path d="M28.4121 24.5741C26.6403 27.1042 24.158 29.0522 21.2791 30.1717C18.4001 31.2912 15.2538 31.5319 12.238 30.8634C9.22222 30.1949 6.47242 28.6473 4.33631 26.4161C2.2002 24.185 0.773755 21.3706 0.237322 18.3288C-0.299111 15.287 0.0785515 12.1545 1.3226 9.32734C2.56666 6.50019 4.6212 4.10542 7.22642 2.44582C9.83163 0.786234 12.8705 -0.0636308 15.9588 0.00371384C19.0471 0.0710585 22.046 1.05258 24.5764 2.82417C27.9657 5.20279 30.2729 8.82857 30.992 12.9061C31.7111 16.9835 30.7833 21.1797 28.4121 24.5741ZM6.02289 8.89883C4.69408 10.7964 3.9579 13.0454 3.90739 15.3614C3.85688 17.6774 4.49433 19.9563 5.73913 21.91C6.98394 23.8637 8.78019 25.4045 10.9007 26.3374C13.0213 27.2704 15.3709 27.5536 17.6524 27.1513C19.934 26.7491 22.045 25.6793 23.7185 24.0774C25.392 22.4755 26.5529 20.4133 27.0543 18.1517C27.5557 15.8901 27.3751 13.5306 26.5354 11.3716C25.6957 9.21256 24.2346 7.35101 22.3368 6.02233C19.7909 4.2441 16.6434 3.54828 13.585 4.08754C10.5266 4.62681 7.80702 6.35711 6.02289 8.89883Z" fill="black"/>
</svg>
