<svg width="162" height="162" viewBox="0 0 162 162" fill="none" xmlns="http://www.w3.org/2000/svg">
<g clip-path="url(#clip0_15_457)">
<path d="M82.4491 105.75C96.971 105.75 108.743 93.9779 108.743 79.4559C108.743 64.934 96.971 53.1617 82.4491 53.1617C67.9272 53.1617 56.1549 64.934 56.1549 79.4559C56.1549 93.9779 67.9272 105.75 82.4491 105.75Z" fill="#A0616A"/>
<path d="M60.6854 111.638L66.1666 97.6305L94.4862 93.3673L97.5289 124.375L68.9048 124.984L60.6854 111.638Z" fill="#A0616A"/>
<path d="M108.998 84.3074C108.657 85.6745 107.967 88.9298 106.89 88.9458C106.01 88.9586 105.167 74.8364 106.046 72.5005C107.056 69.8169 104.402 66.4222 102.403 64.6796C98.8087 61.5464 90.8296 68.2743 82.7162 65.2265C82.5011 65.1459 82.5439 65.1549 79.9819 64.1328C72.0982 60.9873 71.6837 60.8965 71.2321 60.8516C67.4103 60.4735 62.7462 63.6009 60.8417 67.4139C58.8619 71.3776 60.5161 74.7773 58.6543 84.3666C58.4373 85.4844 58.0966 87.0774 57.5605 87.1009C56.5806 87.1437 55.6237 81.9095 55.3731 80.5386C54.3232 74.795 53.3109 69.2575 55.3731 63.039C55.5981 62.3608 56.9844 59.8433 59.748 54.8361C63.7293 47.6228 65.7317 44.0025 66.3103 43.352C70.4604 38.685 78.0144 34.4276 84.3567 36.2428C87.5624 37.1603 86.9876 38.6353 90.9191 40.0709C97.9253 42.6289 104.015 39.5005 105.137 41.7114C105.732 42.8826 104.068 43.8482 104.044 46.0863C104.002 49.9267 108.859 51.0364 111.7 54.8361C113.227 56.8788 115.84 56.9008 108.998 84.3074Z" fill="#2F2E41"/>
<path d="M141.573 134.78C140.514 135.971 139.414 137.137 138.276 138.276C122.977 153.574 102.636 162 81 162C62.3 162 44.5683 155.706 30.2227 144.119C30.2136 144.113 30.2075 144.107 30.1984 144.098C28.2952 142.563 26.4529 140.931 24.6746 139.207C24.708 138.94 24.7446 138.675 24.7841 138.413C25.0339 136.646 25.311 134.962 25.6215 133.413C28.1642 120.708 61.6209 107.371 62.4918 107.024C62.504 107.021 62.5101 107.018 62.5101 107.018C62.5101 107.018 66.8159 122.889 85.2662 122.685C97.8334 122.548 95.3973 107.018 95.3973 107.018C95.3973 107.018 95.5496 107.048 95.8358 107.109C99.4655 107.879 124.667 113.415 134.609 120.97C137.639 123.272 139.813 128.175 141.375 134.022C141.442 134.271 141.506 134.527 141.573 134.78Z" fill="#F9A826"/>
<path d="M138.276 23.7245C122.977 8.4261 102.636 0 81 0C59.3645 0 39.0232 8.4261 23.7244 23.7245C8.42588 39.0232 0 59.3645 0 81C0 100.748 7.019 119.417 19.8816 134.159C21.1087 135.568 22.3907 136.942 23.7244 138.276C24.0381 138.589 24.3548 138.903 24.6746 139.207C26.4529 140.931 28.2952 142.563 30.1984 144.098C30.2075 144.107 30.2136 144.113 30.2227 144.119C44.5683 155.706 62.3 162 81 162C102.636 162 122.977 153.574 138.276 138.276C139.414 137.137 140.514 135.971 141.573 134.78C154.78 119.944 162 101.028 162 81C162 59.3645 153.574 39.0232 138.276 23.7245ZM141.375 134.022C138.979 136.747 136.403 139.311 133.662 141.689C128.464 146.211 122.678 150.072 116.439 153.148C114.25 154.229 112.005 155.212 109.709 156.093C100.79 159.515 91.1098 161.391 81 161.391C71.2434 161.391 61.8889 159.643 53.2316 156.446C49.6779 155.136 46.2431 153.58 42.9452 151.799C42.461 151.537 41.98 151.272 41.5019 151.001C38.9866 149.576 36.5535 148.02 34.218 146.339C30.8714 143.94 27.7166 141.287 24.7841 138.413C23.1398 136.802 21.5686 135.124 20.0673 133.379C7.94473 119.299 0.609023 100.991 0.609023 81C0.609023 36.6725 36.6723 0.609023 81 0.609023C125.328 0.609023 161.391 36.6725 161.391 81C161.391 101.299 153.83 119.862 141.375 134.022Z" fill="#3F3D56"/>
<path d="M47.56 147L52.14 133H54.42L59 147H57.66L56.46 143.28H50.1L48.9 147H47.56ZM50.46 142.12H56.1L53.4 133.76H53.16L50.46 142.12ZM65.5186 147.28C64.6519 147.28 63.8653 147.08 63.1586 146.68C62.4519 146.267 61.8853 145.687 61.4586 144.94C61.0453 144.18 60.8386 143.287 60.8386 142.26V142.02C60.8386 140.993 61.0453 140.107 61.4586 139.36C61.8719 138.6 62.4319 138.02 63.1386 137.62C63.8586 137.207 64.6519 137 65.5186 137C66.2386 137 66.8453 137.1 67.3386 137.3C67.8319 137.487 68.2319 137.733 68.5386 138.04C68.8586 138.333 69.1053 138.647 69.2786 138.98H69.5186V133H70.7186V147H69.5586V145.22H69.3186C69.0386 145.753 68.5986 146.233 67.9986 146.66C67.4119 147.073 66.5853 147.28 65.5186 147.28ZM65.7986 146.2C66.9053 146.2 67.7986 145.847 68.4786 145.14C69.1719 144.433 69.5186 143.46 69.5186 142.22V142.06C69.5186 140.82 69.1719 139.847 68.4786 139.14C67.7986 138.433 66.9053 138.08 65.7986 138.08C64.7053 138.08 63.8119 138.433 63.1186 139.14C62.4253 139.847 62.0786 140.82 62.0786 142.06V142.22C62.0786 143.46 62.4253 144.433 63.1186 145.14C63.8119 145.847 64.7053 146.2 65.7986 146.2ZM78.4483 147.28C77.5816 147.28 76.7949 147.08 76.0883 146.68C75.3816 146.267 74.8149 145.687 74.3883 144.94C73.9749 144.18 73.7683 143.287 73.7683 142.26V142.02C73.7683 140.993 73.9749 140.107 74.3883 139.36C74.8016 138.6 75.3616 138.02 76.0683 137.62C76.7883 137.207 77.5816 137 78.4483 137C79.1683 137 79.7749 137.1 80.2683 137.3C80.7616 137.487 81.1616 137.733 81.4683 138.04C81.7883 138.333 82.0349 138.647 82.2083 138.98H82.4483V133H83.6483V147H82.4883V145.22H82.2483C81.9683 145.753 81.5283 146.233 80.9283 146.66C80.3416 147.073 79.5149 147.28 78.4483 147.28ZM78.7283 146.2C79.8349 146.2 80.7283 145.847 81.4083 145.14C82.1016 144.433 82.4483 143.46 82.4483 142.22V142.06C82.4483 140.82 82.1016 139.847 81.4083 139.14C80.7283 138.433 79.8349 138.08 78.7283 138.08C77.6349 138.08 76.7416 138.433 76.0483 139.14C75.3549 139.847 75.0083 140.82 75.0083 142.06V142.22C75.0083 143.46 75.3549 144.433 76.0483 145.14C76.7416 145.847 77.6349 146.2 78.7283 146.2ZM92.2942 147V133H97.4742C98.3009 133 99.0409 133.16 99.6942 133.48C100.361 133.787 100.888 134.233 101.274 134.82C101.661 135.407 101.854 136.12 101.854 136.96V137.2C101.854 138.04 101.654 138.76 101.254 139.36C100.868 139.947 100.341 140.393 99.6742 140.7C99.0209 141.007 98.2876 141.16 97.4742 141.16H93.5742V147H92.2942ZM93.5742 140H97.3342C98.3342 140 99.1209 139.753 99.6942 139.26C100.281 138.767 100.574 138.073 100.574 137.18V136.98C100.574 136.073 100.288 135.38 99.7142 134.9C99.1542 134.407 98.3609 134.16 97.3342 134.16H93.5742V140ZM104.326 147V137.28H105.526V147H104.326ZM104.926 135.6C104.633 135.6 104.386 135.5 104.186 135.3C103.986 135.1 103.886 134.853 103.886 134.56C103.886 134.253 103.986 134.007 104.186 133.82C104.386 133.62 104.633 133.52 104.926 133.52C105.233 133.52 105.48 133.62 105.666 133.82C105.866 134.007 105.966 134.253 105.966 134.56C105.966 134.853 105.866 135.1 105.666 135.3C105.48 135.5 105.233 135.6 104.926 135.6ZM113.493 147.28C112.546 147.28 111.7 147.08 110.953 146.68C110.22 146.267 109.64 145.68 109.213 144.92C108.786 144.16 108.573 143.267 108.573 142.24V142.04C108.573 141 108.786 140.107 109.213 139.36C109.64 138.6 110.22 138.02 110.953 137.62C111.7 137.207 112.546 137 113.493 137C114.426 137 115.213 137.18 115.853 137.54C116.506 137.887 117.013 138.347 117.373 138.92C117.746 139.48 117.98 140.073 118.073 140.7L116.893 140.94C116.826 140.42 116.66 139.947 116.393 139.52C116.126 139.08 115.753 138.733 115.273 138.48C114.793 138.213 114.2 138.08 113.493 138.08C112.786 138.08 112.153 138.247 111.593 138.58C111.033 138.9 110.586 139.36 110.253 139.96C109.933 140.547 109.773 141.247 109.773 142.06V142.22C109.773 143.033 109.933 143.74 110.253 144.34C110.586 144.927 111.033 145.387 111.593 145.72C112.153 146.04 112.786 146.2 113.493 146.2C114.56 146.2 115.373 145.927 115.933 145.38C116.493 144.82 116.84 144.14 116.973 143.34L118.153 143.58C118.033 144.207 117.78 144.807 117.393 145.38C117.02 145.94 116.506 146.4 115.853 146.76C115.213 147.107 114.426 147.28 113.493 147.28Z" fill="black"/>
</g>
<defs>
<clipPath id="clip0_15_457">
<rect width="162" height="162" fill="white"/>
</clipPath>
</defs>
</svg>
