<?xml version="1.0" encoding="UTF-8" standalone="no"?><!DOCTYPE svg PUBLIC "-//W3C//DTD SVG 1.1//EN" "http://www.w3.org/Graphics/SVG/1.1/DTD/svg11.dtd"><svg width="100%" height="100%" viewBox="0 0 141 51" version="1.1" xmlns="http://www.w3.org/2000/svg" xmlns:xlink="http://www.w3.org/1999/xlink" xml:space="preserve" xmlns:serif="http://www.serif.com/" style="fill-rule:evenodd;clip-rule:evenodd;"><clipPath id="_clip1"><rect id="false.svg" x="0.536" y="0.48" width="140.385" height="50"/></clipPath><g clip-path="url(#_clip1)"><g><rect x="0.536" y="4.48" width="137.47" height="46"/><rect x="4.463" y="0.48" width="137.47" height="46" style="fill:#fff;"/><path d="M22.83,28.48l-0,-1.624l1.265,-0l-0,-6.552l-1.265,-0l-0,-1.624l3.959,-0c1.292,-0 2.273,0.336 2.942,1.008c0.678,0.663 1.017,1.652 1.017,2.968l0,1.848c0,1.316 -0.339,2.31 -1.017,2.982c-0.669,0.663 -1.65,0.994 -2.942,0.994l-3.959,-0Zm3.079,-1.68l0.907,-0c0.734,-0 1.27,-0.196 1.609,-0.588c0.339,-0.392 0.508,-0.943 0.508,-1.652l0,-1.96c0,-0.719 -0.169,-1.269 -0.508,-1.652c-0.339,-0.392 -0.875,-0.588 -1.609,-0.588l-0.907,-0l0,6.44Zm9.513,1.876c-0.678,-0 -1.278,-0.145 -1.8,-0.434c-0.514,-0.299 -0.917,-0.714 -1.21,-1.246c-0.284,-0.541 -0.426,-1.176 -0.426,-1.904l-0,-0.168c-0,-0.728 0.142,-1.358 0.426,-1.89c0.284,-0.541 0.683,-0.957 1.196,-1.246c0.513,-0.299 1.109,-0.448 1.787,-0.448c0.669,-0 1.251,0.154 1.746,0.462c0.495,0.299 0.88,0.719 1.155,1.26c0.274,0.532 0.412,1.153 0.412,1.862l-0,0.602l-4.963,-0c0.019,0.476 0.193,0.863 0.523,1.162c0.33,0.299 0.733,0.448 1.209,0.448c0.486,-0 0.843,-0.107 1.073,-0.322c0.229,-0.215 0.403,-0.453 0.522,-0.714l1.416,0.756c-0.128,0.243 -0.316,0.509 -0.564,0.798c-0.238,0.28 -0.559,0.523 -0.962,0.728c-0.403,0.196 -0.916,0.294 -1.54,0.294Zm-1.663,-4.466l3.189,-0c-0.036,-0.401 -0.197,-0.723 -0.481,-0.966c-0.275,-0.243 -0.637,-0.364 -1.086,-0.364c-0.467,-0 -0.838,0.121 -1.113,0.364c-0.275,0.243 -0.445,0.565 -0.509,0.966Zm6.491,4.27l-0,-9.8l1.732,-0l-0,9.8l-1.732,-0Zm6.758,0.196c-0.678,-0 -1.278,-0.145 -1.801,-0.434c-0.513,-0.299 -0.916,-0.714 -1.21,-1.246c-0.284,-0.541 -0.426,-1.176 -0.426,-1.904l0,-0.168c0,-0.728 0.142,-1.358 0.426,-1.89c0.284,-0.541 0.683,-0.957 1.196,-1.246c0.514,-0.299 1.109,-0.448 1.788,-0.448c0.668,-0 1.25,0.154 1.745,0.462c0.495,0.299 0.88,0.719 1.155,1.26c0.275,0.532 0.413,1.153 0.413,1.862l-0,0.602l-4.963,-0c0.018,0.476 0.192,0.863 0.522,1.162c0.33,0.299 0.733,0.448 1.21,0.448c0.486,-0 0.843,-0.107 1.072,-0.322c0.229,-0.215 0.404,-0.453 0.523,-0.714l1.416,0.756c-0.129,0.243 -0.317,0.509 -0.564,0.798c-0.238,0.28 -0.559,0.523 -0.962,0.728c-0.404,0.196 -0.917,0.294 -1.54,0.294Zm-1.663,-4.466l3.189,-0c-0.037,-0.401 -0.197,-0.723 -0.481,-0.966c-0.275,-0.243 -0.637,-0.364 -1.086,-0.364c-0.468,-0 -0.839,0.121 -1.114,0.364c-0.275,0.243 -0.444,0.565 -0.508,0.966Zm8.874,4.27c-0.449,-0 -0.816,-0.14 -1.1,-0.42c-0.275,-0.289 -0.412,-0.672 -0.412,-1.148l-0,-3.92l-1.705,-0l0,-1.456l1.705,-0l-0,-2.156l1.732,-0l-0,2.156l1.87,-0l-0,1.456l-1.87,-0l-0,3.612c-0,0.28 0.128,0.42 0.385,0.42l1.32,-0l-0,1.456l-1.925,-0Zm6.523,0.196c-0.679,-0 -1.279,-0.145 -1.801,-0.434c-0.513,-0.299 -0.917,-0.714 -1.21,-1.246c-0.284,-0.541 -0.426,-1.176 -0.426,-1.904l-0,-0.168c-0,-0.728 0.142,-1.358 0.426,-1.89c0.284,-0.541 0.683,-0.957 1.196,-1.246c0.513,-0.299 1.109,-0.448 1.787,-0.448c0.669,-0 1.251,0.154 1.746,0.462c0.495,0.299 0.88,0.719 1.155,1.26c0.275,0.532 0.412,1.153 0.412,1.862l0,0.602l-4.963,-0c0.019,0.476 0.193,0.863 0.523,1.162c0.33,0.299 0.733,0.448 1.21,0.448c0.485,-0 0.843,-0.107 1.072,-0.322c0.229,-0.215 0.403,-0.453 0.522,-0.714l1.416,0.756c-0.128,0.243 -0.316,0.509 -0.563,0.798c-0.239,0.28 -0.559,0.523 -0.963,0.728c-0.403,0.196 -0.916,0.294 -1.539,0.294Zm-1.664,-4.466l3.19,-0c-0.037,-0.401 -0.197,-0.723 -0.482,-0.966c-0.275,-0.243 -0.637,-0.364 -1.086,-0.364c-0.467,-0 -0.838,0.121 -1.113,0.364c-0.275,0.243 -0.445,0.565 -0.509,0.966Zm9.105,4.27l2.53,-9.8l3.162,-0l2.529,9.8l-1.869,-0l-0.523,-2.156l-3.437,-0l-0.522,2.156l-1.87,-0Zm2.819,-3.864l2.584,-0l-1.169,-4.774l-0.247,-0l-1.168,4.774Zm9.812,4.06c-0.66,-0 -1.26,-0.14 -1.801,-0.42c-0.531,-0.28 -0.953,-0.686 -1.265,-1.218c-0.311,-0.532 -0.467,-1.176 -0.467,-1.932l0,-0.196c0,-0.756 0.156,-1.4 0.467,-1.932c0.312,-0.532 0.734,-0.938 1.265,-1.218c0.541,-0.28 1.141,-0.42 1.801,-0.42c0.651,-0 1.21,0.117 1.677,0.35c0.468,0.233 0.843,0.555 1.127,0.966c0.294,0.401 0.486,0.859 0.578,1.372l-1.677,0.364c-0.037,-0.28 -0.12,-0.532 -0.248,-0.756c-0.128,-0.224 -0.311,-0.401 -0.55,-0.532c-0.229,-0.131 -0.518,-0.196 -0.866,-0.196c-0.348,-0 -0.664,0.079 -0.948,0.238c-0.275,0.149 -0.495,0.378 -0.66,0.686c-0.156,0.299 -0.234,0.667 -0.234,1.106l0,0.14c0,0.439 0.078,0.812 0.234,1.12c0.165,0.299 0.385,0.527 0.66,0.686c0.284,0.149 0.6,0.224 0.948,0.224c0.523,-0 0.917,-0.135 1.183,-0.406c0.274,-0.28 0.449,-0.644 0.522,-1.092l1.677,0.406c-0.119,0.495 -0.325,0.947 -0.619,1.358c-0.284,0.401 -0.659,0.719 -1.127,0.952c-0.467,0.233 -1.026,0.35 -1.677,0.35Zm8.055,-0c-0.66,-0 -1.26,-0.14 -1.801,-0.42c-0.531,-0.28 -0.953,-0.686 -1.265,-1.218c-0.311,-0.532 -0.467,-1.176 -0.467,-1.932l-0,-0.196c-0,-0.756 0.156,-1.4 0.467,-1.932c0.312,-0.532 0.734,-0.938 1.265,-1.218c0.541,-0.28 1.141,-0.42 1.801,-0.42c0.651,-0 1.21,0.117 1.677,0.35c0.467,0.233 0.843,0.555 1.127,0.966c0.294,0.401 0.486,0.859 0.578,1.372l-1.677,0.364c-0.037,-0.28 -0.12,-0.532 -0.248,-0.756c-0.128,-0.224 -0.311,-0.401 -0.55,-0.532c-0.229,-0.131 -0.518,-0.196 -0.866,-0.196c-0.348,-0 -0.664,0.079 -0.948,0.238c-0.275,0.149 -0.495,0.378 -0.66,0.686c-0.156,0.299 -0.234,0.667 -0.234,1.106l0,0.14c0,0.439 0.078,0.812 0.234,1.12c0.165,0.299 0.385,0.527 0.66,0.686c0.284,0.149 0.6,0.224 0.948,0.224c0.523,-0 0.917,-0.135 1.182,-0.406c0.275,-0.28 0.449,-0.644 0.523,-1.092l1.677,0.406c-0.119,0.495 -0.325,0.947 -0.619,1.358c-0.284,0.401 -0.66,0.719 -1.127,0.952c-0.467,0.233 -1.026,0.35 -1.677,0.35Zm8.096,-0c-0.678,-0 -1.288,-0.14 -1.828,-0.42c-0.541,-0.28 -0.967,-0.686 -1.279,-1.218c-0.311,-0.532 -0.467,-1.171 -0.467,-1.918l-0,-0.224c-0,-0.747 0.156,-1.386 0.467,-1.918c0.312,-0.532 0.738,-0.938 1.279,-1.218c0.54,-0.28 1.15,-0.42 1.828,-0.42c0.678,-0 1.288,0.14 1.829,0.42c0.541,0.28 0.967,0.686 1.278,1.218c0.311,0.532 0.467,1.171 0.467,1.918l0,0.224c0,0.747 -0.156,1.386 -0.467,1.918c-0.311,0.532 -0.737,0.938 -1.278,1.218c-0.541,0.28 -1.151,0.42 -1.829,0.42Zm0,-1.568c0.532,-0 0.972,-0.173 1.32,-0.518c0.348,-0.355 0.522,-0.859 0.522,-1.512l0,-0.14c0,-0.653 -0.174,-1.153 -0.522,-1.498c-0.339,-0.355 -0.779,-0.532 -1.32,-0.532c-0.531,-0 -0.971,0.177 -1.32,0.532c-0.348,0.345 -0.522,0.845 -0.522,1.498l-0,0.14c-0,0.653 0.174,1.157 0.522,1.512c0.349,0.345 0.789,0.518 1.32,0.518Zm7.771,1.484c-0.531,-0 -0.998,-0.121 -1.402,-0.364c-0.394,-0.252 -0.701,-0.597 -0.921,-1.036c-0.22,-0.439 -0.33,-0.943 -0.33,-1.512l0,-4.144l1.732,-0l0,4.004c0,0.523 0.124,0.915 0.371,1.176c0.258,0.261 0.619,0.392 1.086,0.392c0.533,-0 0.945,-0.177 1.238,-0.532c0.293,-0.364 0.439,-0.868 0.439,-1.512l0,-3.528l1.733,-0l-0,6.944l-1.705,-0l-0,-0.91l-0.247,-0c-0.11,0.233 -0.317,0.462 -0.619,0.686c-0.303,0.224 -0.76,0.336 -1.375,0.336Zm5.873,-0.112l0,-6.944l1.705,-0l-0,0.91l0.247,-0c0.11,-0.243 0.316,-0.471 0.619,-0.686c0.302,-0.224 0.761,-0.336 1.375,-0.336c0.531,-0 0.994,0.126 1.388,0.378c0.404,0.243 0.715,0.583 0.935,1.022c0.22,0.429 0.33,0.933 0.33,1.512l-0,4.144l-1.732,-0l-0,-4.004c-0,-0.523 -0.129,-0.915 -0.385,-1.176c-0.248,-0.261 -0.605,-0.392 -1.073,-0.392c-0.531,-0 -0.943,0.182 -1.237,0.546c-0.293,0.355 -0.44,0.854 -0.44,1.498l0,3.528l-1.732,-0Zm10.896,-0c-0.45,-0 -0.816,-0.14 -1.1,-0.42c-0.275,-0.289 -0.413,-0.672 -0.413,-1.148l0,-3.92l-1.704,-0l-0,-1.456l1.704,-0l0,-2.156l1.733,-0l-0,2.156l1.869,-0l0,1.456l-1.869,-0l-0,3.612c-0,0.28 0.127,0.42 0.385,0.42l1.319,-0l0,1.456l-1.924,-0Z" style="fill-rule:nonzero;"/><rect x="5.445" y="1.48" width="135.507" height="44" style="fill:none;stroke:#000;stroke-width:1.98px;"/></g></g></svg>