<?xml version="1.0" encoding="UTF-8" standalone="no"?><!DOCTYPE svg PUBLIC "-//W3C//DTD SVG 1.1//EN" "http://www.w3.org/Graphics/SVG/1.1/DTD/svg11.dtd"><svg width="100%" height="100%" viewBox="0 0 127 51" version="1.1" xmlns="http://www.w3.org/2000/svg" xmlns:xlink="http://www.w3.org/1999/xlink" xml:space="preserve" xmlns:serif="http://www.serif.com/" style="fill-rule:evenodd;clip-rule:evenodd;"><clipPath id="_clip1"><rect id="Button.svg" x="0.133" y="0.48" width="126" height="50"/></clipPath><g clip-path="url(#_clip1)"><g><rect x="0.133" y="4.48" width="122" height="46"/><rect x="4.133" y="0.48" width="122" height="46" style="fill:#fff;"/><path d="M26.727,28.676c-0.756,-0 -1.423,-0.135 -2.002,-0.406c-0.578,-0.271 -1.031,-0.658 -1.358,-1.162c-0.326,-0.504 -0.49,-1.111 -0.49,-1.82l0,-0.392l1.82,-0l0,0.392c0,0.588 0.182,1.031 0.546,1.33c0.364,0.289 0.859,0.434 1.484,0.434c0.635,-0 1.106,-0.126 1.414,-0.378c0.318,-0.252 0.476,-0.574 0.476,-0.966c0,-0.271 -0.079,-0.49 -0.238,-0.658c-0.149,-0.168 -0.373,-0.303 -0.672,-0.406c-0.289,-0.112 -0.644,-0.215 -1.064,-0.308l-0.322,-0.07c-0.672,-0.149 -1.25,-0.336 -1.736,-0.56c-0.476,-0.233 -0.844,-0.537 -1.106,-0.91c-0.252,-0.373 -0.378,-0.859 -0.378,-1.456c0,-0.597 0.14,-1.106 0.42,-1.526c0.29,-0.429 0.691,-0.756 1.204,-0.98c0.523,-0.233 1.134,-0.35 1.834,-0.35c0.7,-0 1.321,0.121 1.862,0.364c0.551,0.233 0.98,0.588 1.288,1.064c0.318,0.467 0.476,1.055 0.476,1.764l0,0.42l-1.82,-0l0,-0.42c0,-0.373 -0.074,-0.672 -0.224,-0.896c-0.14,-0.233 -0.345,-0.401 -0.616,-0.504c-0.27,-0.112 -0.592,-0.168 -0.966,-0.168c-0.56,-0 -0.975,0.107 -1.246,0.322c-0.261,0.205 -0.392,0.49 -0.392,0.854c0,0.243 0.061,0.448 0.182,0.616c0.131,0.168 0.322,0.308 0.574,0.42c0.252,0.112 0.574,0.21 0.966,0.294l0.322,0.07c0.7,0.149 1.307,0.341 1.82,0.574c0.523,0.233 0.929,0.541 1.218,0.924c0.29,0.383 0.434,0.873 0.434,1.47c0,0.597 -0.154,1.125 -0.462,1.582c-0.298,0.448 -0.728,0.803 -1.288,1.064c-0.55,0.252 -1.204,0.378 -1.96,0.378Zm8.309,-0c-0.691,-0 -1.302,-0.145 -1.834,-0.434c-0.523,-0.299 -0.934,-0.714 -1.232,-1.246c-0.29,-0.541 -0.434,-1.176 -0.434,-1.904l-0,-0.168c-0,-0.728 0.144,-1.358 0.434,-1.89c0.289,-0.541 0.695,-0.957 1.218,-1.246c0.522,-0.299 1.129,-0.448 1.82,-0.448c0.681,-0 1.274,0.154 1.778,0.462c0.504,0.299 0.896,0.719 1.176,1.26c0.28,0.532 0.42,1.153 0.42,1.862l-0,0.602l-5.054,-0c0.018,0.476 0.196,0.863 0.532,1.162c0.336,0.299 0.746,0.448 1.232,0.448c0.494,-0 0.858,-0.107 1.092,-0.322c0.233,-0.215 0.41,-0.453 0.532,-0.714l1.442,0.756c-0.131,0.243 -0.322,0.509 -0.574,0.798c-0.243,0.28 -0.57,0.523 -0.98,0.728c-0.411,0.196 -0.934,0.294 -1.568,0.294Zm-1.694,-4.466l3.248,-0c-0.038,-0.401 -0.201,-0.723 -0.49,-0.966c-0.28,-0.243 -0.649,-0.364 -1.106,-0.364c-0.476,-0 -0.854,0.121 -1.134,0.364c-0.28,0.243 -0.453,0.565 -0.518,0.966Zm8.766,4.466c-0.495,-0 -0.938,-0.084 -1.33,-0.252c-0.392,-0.177 -0.705,-0.429 -0.938,-0.756c-0.224,-0.336 -0.336,-0.742 -0.336,-1.218c-0,-0.476 0.112,-0.873 0.336,-1.19c0.233,-0.327 0.55,-0.569 0.952,-0.728c0.41,-0.168 0.877,-0.252 1.4,-0.252l1.904,-0l-0,-0.392c-0,-0.327 -0.103,-0.593 -0.308,-0.798c-0.206,-0.215 -0.532,-0.322 -0.98,-0.322c-0.439,-0 -0.766,0.103 -0.98,0.308c-0.215,0.196 -0.355,0.453 -0.42,0.77l-1.624,-0.546c0.112,-0.355 0.289,-0.677 0.532,-0.966c0.252,-0.299 0.583,-0.537 0.994,-0.714c0.42,-0.187 0.928,-0.28 1.526,-0.28c0.914,-0 1.638,0.229 2.17,0.686c0.532,0.457 0.798,1.12 0.798,1.988l-0,2.59c-0,0.28 0.13,0.42 0.392,0.42l0.56,-0l-0,1.456l-1.176,-0c-0.346,-0 -0.63,-0.084 -0.854,-0.252c-0.224,-0.168 -0.336,-0.392 -0.336,-0.672l-0,-0.014l-0.266,-0c-0.038,0.112 -0.122,0.261 -0.252,0.448c-0.131,0.177 -0.336,0.336 -0.616,0.476c-0.28,0.14 -0.663,0.21 -1.148,0.21Zm0.308,-1.428c0.494,-0 0.896,-0.135 1.204,-0.406c0.317,-0.28 0.476,-0.649 0.476,-1.106l-0,-0.14l-1.778,-0c-0.327,-0 -0.584,0.07 -0.77,0.21c-0.187,0.14 -0.28,0.336 -0.28,0.588c-0,0.252 0.098,0.457 0.294,0.616c0.196,0.159 0.48,0.238 0.854,0.238Zm5.629,1.232l0,-6.944l1.736,-0l0,0.784l0.252,-0c0.103,-0.28 0.271,-0.485 0.504,-0.616c0.243,-0.131 0.523,-0.196 0.84,-0.196l0.84,-0l0,1.568l-0.868,-0c-0.448,-0 -0.816,0.121 -1.106,0.364c-0.289,0.233 -0.434,0.597 -0.434,1.092l0,3.948l-1.764,-0Zm8.567,0.196c-0.672,-0 -1.283,-0.14 -1.834,-0.42c-0.541,-0.28 -0.971,-0.686 -1.288,-1.218c-0.317,-0.532 -0.476,-1.176 -0.476,-1.932l0,-0.196c0,-0.756 0.159,-1.4 0.476,-1.932c0.317,-0.532 0.747,-0.938 1.288,-1.218c0.551,-0.28 1.162,-0.42 1.834,-0.42c0.663,-0 1.232,0.117 1.708,0.35c0.476,0.233 0.859,0.555 1.148,0.966c0.299,0.401 0.495,0.859 0.588,1.372l-1.708,0.364c-0.037,-0.28 -0.121,-0.532 -0.252,-0.756c-0.131,-0.224 -0.317,-0.401 -0.56,-0.532c-0.233,-0.131 -0.527,-0.196 -0.882,-0.196c-0.355,-0 -0.677,0.079 -0.966,0.238c-0.28,0.149 -0.504,0.378 -0.672,0.686c-0.159,0.299 -0.238,0.667 -0.238,1.106l0,0.14c0,0.439 0.079,0.812 0.238,1.12c0.168,0.299 0.392,0.527 0.672,0.686c0.289,0.149 0.611,0.224 0.966,0.224c0.532,-0 0.933,-0.135 1.204,-0.406c0.28,-0.28 0.457,-0.644 0.532,-1.092l1.708,0.406c-0.121,0.495 -0.331,0.947 -0.63,1.358c-0.289,0.401 -0.672,0.719 -1.148,0.952c-0.476,0.233 -1.045,0.35 -1.708,0.35Zm4.941,-0.196l0,-9.8l1.764,-0l0,3.71l0.252,-0c0.075,-0.149 0.192,-0.299 0.35,-0.448c0.159,-0.149 0.369,-0.271 0.63,-0.364c0.271,-0.103 0.612,-0.154 1.022,-0.154c0.542,-0 1.013,0.126 1.414,0.378c0.411,0.243 0.728,0.583 0.952,1.022c0.224,0.429 0.336,0.933 0.336,1.512l0,4.144l-1.764,-0l0,-4.004c0,-0.523 -0.13,-0.915 -0.392,-1.176c-0.252,-0.261 -0.616,-0.392 -1.092,-0.392c-0.541,-0 -0.961,0.182 -1.26,0.546c-0.298,0.355 -0.448,0.854 -0.448,1.498l0,3.528l-1.764,-0Zm13.97,-0l-0,-8.12l-2.856,-0l-0,-1.68l7.56,-0l-0,1.68l-2.856,-0l-0,8.12l-1.848,-0Zm5.061,-0l0,-6.944l1.736,-0l0,0.784l0.252,-0c0.103,-0.28 0.271,-0.485 0.504,-0.616c0.243,-0.131 0.523,-0.196 0.84,-0.196l0.84,-0l0,1.568l-0.868,-0c-0.448,-0 -0.816,0.121 -1.106,0.364c-0.289,0.233 -0.434,0.597 -0.434,1.092l0,3.948l-1.764,-0Zm7.543,0.196c-0.495,-0 -0.938,-0.084 -1.33,-0.252c-0.392,-0.177 -0.705,-0.429 -0.938,-0.756c-0.224,-0.336 -0.336,-0.742 -0.336,-1.218c0,-0.476 0.112,-0.873 0.336,-1.19c0.233,-0.327 0.551,-0.569 0.952,-0.728c0.411,-0.168 0.877,-0.252 1.4,-0.252l1.904,-0l0,-0.392c0,-0.327 -0.103,-0.593 -0.308,-0.798c-0.205,-0.215 -0.532,-0.322 -0.98,-0.322c-0.439,-0 -0.765,0.103 -0.98,0.308c-0.215,0.196 -0.355,0.453 -0.42,0.77l-1.624,-0.546c0.112,-0.355 0.289,-0.677 0.532,-0.966c0.252,-0.299 0.583,-0.537 0.994,-0.714c0.42,-0.187 0.929,-0.28 1.526,-0.28c0.915,-0 1.638,0.229 2.17,0.686c0.532,0.457 0.798,1.12 0.798,1.988l0,2.59c0,0.28 0.131,0.42 0.392,0.42l0.56,-0l0,1.456l-1.176,-0c-0.345,-0 -0.63,-0.084 -0.854,-0.252c-0.224,-0.168 -0.336,-0.392 -0.336,-0.672l0,-0.014l-0.266,-0c-0.037,0.112 -0.121,0.261 -0.252,0.448c-0.131,0.177 -0.336,0.336 -0.616,0.476c-0.28,0.14 -0.663,0.21 -1.148,0.21Zm0.308,-1.428c0.495,-0 0.896,-0.135 1.204,-0.406c0.317,-0.28 0.476,-0.649 0.476,-1.106l0,-0.14l-1.778,-0c-0.327,-0 -0.583,0.07 -0.77,0.21c-0.187,0.14 -0.28,0.336 -0.28,0.588c0,0.252 0.098,0.457 0.294,0.616c0.196,0.159 0.481,0.238 0.854,0.238Zm5.63,1.232l-0,-6.944l1.764,-0l-0,6.944l-1.764,-0Zm0.882,-7.756c-0.317,-0 -0.588,-0.103 -0.812,-0.308c-0.215,-0.205 -0.322,-0.476 -0.322,-0.812c-0,-0.336 0.107,-0.607 0.322,-0.812c0.224,-0.205 0.495,-0.308 0.812,-0.308c0.327,-0 0.597,0.103 0.812,0.308c0.215,0.205 0.322,0.476 0.322,0.812c-0,0.336 -0.107,0.607 -0.322,0.812c-0.215,0.205 -0.485,0.308 -0.812,0.308Zm2.837,7.756l-0,-9.8l1.764,-0l-0,9.8l-1.764,-0Zm6.603,0.196c-0.906,-0 -1.648,-0.196 -2.226,-0.588c-0.579,-0.392 -0.929,-0.952 -1.05,-1.68l1.624,-0.42c0.065,0.327 0.172,0.583 0.322,0.77c0.158,0.187 0.35,0.322 0.574,0.406c0.233,0.075 0.485,0.112 0.756,0.112c0.41,-0 0.714,-0.07 0.91,-0.21c0.196,-0.149 0.294,-0.331 0.294,-0.546c-0,-0.215 -0.094,-0.378 -0.28,-0.49c-0.187,-0.121 -0.486,-0.219 -0.896,-0.294l-0.392,-0.07c-0.486,-0.093 -0.929,-0.219 -1.33,-0.378c-0.402,-0.168 -0.724,-0.397 -0.966,-0.686c-0.243,-0.289 -0.364,-0.663 -0.364,-1.12c-0,-0.691 0.252,-1.218 0.756,-1.582c0.504,-0.373 1.166,-0.56 1.988,-0.56c0.774,-0 1.418,0.173 1.932,0.518c0.513,0.345 0.849,0.798 1.008,1.358l-1.638,0.504c-0.075,-0.355 -0.229,-0.607 -0.462,-0.756c-0.224,-0.149 -0.504,-0.224 -0.84,-0.224c-0.336,-0 -0.593,0.061 -0.77,0.182c-0.178,0.112 -0.266,0.271 -0.266,0.476c-0,0.224 0.093,0.392 0.28,0.504c0.186,0.103 0.438,0.182 0.756,0.238l0.392,0.07c0.522,0.093 0.994,0.219 1.414,0.378c0.429,0.149 0.765,0.369 1.008,0.658c0.252,0.28 0.378,0.663 0.378,1.148c-0,0.728 -0.266,1.293 -0.798,1.694c-0.523,0.392 -1.228,0.588 -2.114,0.588Z" style="fill-rule:nonzero;"/><rect x="5.133" y="1.48" width="120" height="44" style="fill:none;stroke:#000;stroke-width:2px;"/></g></g></svg>