<?xml version="1.0" encoding="UTF-8" standalone="no"?><!DOCTYPE svg PUBLIC "-//W3C//DTD SVG 1.1//EN" "http://www.w3.org/Graphics/SVG/1.1/DTD/svg11.dtd"><svg width="100%" height="100%" viewBox="0 0 85 51" version="1.1" xmlns="http://www.w3.org/2000/svg" xmlns:xlink="http://www.w3.org/1999/xlink" xml:space="preserve" xmlns:serif="http://www.serif.com/" style="fill-rule:evenodd;clip-rule:evenodd;"><clipPath id="_clip1"><rect id="Button.svg" x="0.937" y="0.48" width="84" height="50"/></clipPath><g clip-path="url(#_clip1)"><g><rect x="0.937" y="4.48" width="80" height="46"/><rect x="4.937" y="0.48" width="80" height="46" style="fill:#fff;"/><path d="M24.198,28.48l-0,-9.8l4.032,-0c0.616,-0 1.157,0.126 1.624,0.378c0.476,0.243 0.845,0.588 1.106,1.036c0.271,0.448 0.406,0.98 0.406,1.596l-0,0.196c-0,0.607 -0.14,1.139 -0.42,1.596c-0.271,0.448 -0.644,0.798 -1.12,1.05c-0.467,0.243 -0.999,0.364 -1.596,0.364l-2.184,-0l-0,3.584l-1.848,-0Zm1.848,-5.264l2.002,-0c0.439,-0 0.793,-0.121 1.064,-0.364c0.271,-0.243 0.406,-0.574 0.406,-0.994l-0,-0.14c-0,-0.42 -0.135,-0.751 -0.406,-0.994c-0.271,-0.243 -0.625,-0.364 -1.064,-0.364l-2.002,-0l-0,2.856Zm6.657,5.264l0,-6.944l1.736,-0l0,0.784l0.252,-0c0.103,-0.28 0.271,-0.485 0.504,-0.616c0.243,-0.131 0.523,-0.196 0.84,-0.196l0.84,-0l0,1.568l-0.868,-0c-0.448,-0 -0.816,0.121 -1.106,0.364c-0.289,0.233 -0.434,0.597 -0.434,1.092l0,3.948l-1.764,-0Zm8.609,0.196c-0.691,-0 -1.311,-0.14 -1.862,-0.42c-0.551,-0.28 -0.985,-0.686 -1.302,-1.218c-0.317,-0.532 -0.476,-1.171 -0.476,-1.918l-0,-0.224c-0,-0.747 0.159,-1.386 0.476,-1.918c0.317,-0.532 0.751,-0.938 1.302,-1.218c0.551,-0.28 1.171,-0.42 1.862,-0.42c0.691,-0 1.311,0.14 1.862,0.42c0.551,0.28 0.985,0.686 1.302,1.218c0.317,0.532 0.476,1.171 0.476,1.918l-0,0.224c-0,0.747 -0.159,1.386 -0.476,1.918c-0.317,0.532 -0.751,0.938 -1.302,1.218c-0.551,0.28 -1.171,0.42 -1.862,0.42Zm-0,-1.568c0.541,-0 0.989,-0.173 1.344,-0.518c0.355,-0.355 0.532,-0.859 0.532,-1.512l-0,-0.14c-0,-0.653 -0.177,-1.153 -0.532,-1.498c-0.345,-0.355 -0.793,-0.532 -1.344,-0.532c-0.541,-0 -0.989,0.177 -1.344,0.532c-0.355,0.345 -0.532,0.845 -0.532,1.498l-0,0.14c-0,0.653 0.177,1.157 0.532,1.512c0.355,0.345 0.803,0.518 1.344,0.518Zm6.184,1.372l-0,-5.488l-1.764,-0l-0,-1.456l1.764,-0l-0,-1.288c-0,-0.476 0.14,-0.854 0.42,-1.134c0.289,-0.289 0.662,-0.434 1.12,-0.434l1.68,-0l-0,1.456l-1.064,-0c-0.262,-0 -0.392,0.14 -0.392,0.42l-0,0.98l2.8,-0l-0,1.456l-2.8,-0l-0,5.488l-1.764,-0Zm4.564,-0l-0,-6.944l1.764,-0l-0,6.944l-1.764,-0Zm0.882,-7.7c-0.318,-0 -0.588,-0.103 -0.812,-0.308c-0.215,-0.205 -0.322,-0.476 -0.322,-0.812c-0,-0.336 0.107,-0.607 0.322,-0.812c0.224,-0.205 0.494,-0.308 0.812,-0.308c0.326,-0 0.597,0.103 0.812,0.308c0.214,0.205 0.322,0.476 0.322,0.812c-0,0.336 -0.108,0.607 -0.322,0.812c-0.215,0.205 -0.486,0.308 -0.812,0.308Zm2.839,7.7l0,-9.8l1.764,-0l0,9.8l-1.764,-0Zm6.883,0.196c-0.691,-0 -1.302,-0.145 -1.834,-0.434c-0.523,-0.299 -0.933,-0.714 -1.232,-1.246c-0.289,-0.541 -0.434,-1.176 -0.434,-1.904l0,-0.168c0,-0.728 0.145,-1.358 0.434,-1.89c0.289,-0.541 0.695,-0.957 1.218,-1.246c0.523,-0.299 1.129,-0.448 1.82,-0.448c0.681,-0 1.274,0.154 1.778,0.462c0.504,0.299 0.896,0.719 1.176,1.26c0.28,0.532 0.42,1.153 0.42,1.862l0,0.602l-5.054,-0c0.019,0.476 0.196,0.863 0.532,1.162c0.336,0.299 0.747,0.448 1.232,0.448c0.495,-0 0.859,-0.107 1.092,-0.322c0.233,-0.215 0.411,-0.453 0.532,-0.714l1.442,0.756c-0.131,0.243 -0.322,0.509 -0.574,0.798c-0.243,0.28 -0.569,0.523 -0.98,0.728c-0.411,0.196 -0.933,0.294 -1.568,0.294Zm-1.694,-4.466l3.248,-0c-0.037,-0.401 -0.201,-0.723 -0.49,-0.966c-0.28,-0.243 -0.649,-0.364 -1.106,-0.364c-0.476,-0 -0.854,0.121 -1.134,0.364c-0.28,0.243 -0.453,0.565 -0.518,0.966Z" style="fill-rule:nonzero;"/><rect x="5.937" y="1.48" width="78" height="44" style="fill:none;stroke:#000;stroke-width:2px;"/></g></g></svg>