<svg width="46" height="35" viewBox="0 0 46 35" fill="none" xmlns="http://www.w3.org/2000/svg">
<path d="M21.9075 9.07992L7.50201 20.9445V33.7499C7.50201 34.0814 7.63372 34.3994 7.86817 34.6338C8.10261 34.8683 8.42059 35 8.75215 35L17.5078 34.9773C17.8383 34.9757 18.1547 34.8432 18.3878 34.609C18.6209 34.3747 18.7517 34.0577 18.7517 33.7272V26.249C18.7517 25.9175 18.8834 25.5995 19.1179 25.365C19.3523 25.1306 19.6703 24.9989 20.0018 24.9989H25.0024C25.334 24.9989 25.6519 25.1306 25.8864 25.365C26.1208 25.5995 26.2525 25.9175 26.2525 26.249V33.7217C26.252 33.8862 26.284 34.0492 26.3466 34.2013C26.4092 34.3535 26.5012 34.4917 26.6173 34.6082C26.7334 34.7247 26.8714 34.8172 27.0234 34.8802C27.1753 34.9433 27.3382 34.9758 27.5027 34.9758L36.2552 35C36.5868 35 36.9048 34.8683 37.1392 34.6338C37.3736 34.3994 37.5054 34.0814 37.5054 33.7499V20.9359L23.103 9.07992C22.9336 8.94344 22.7227 8.86901 22.5052 8.86901C22.2878 8.86901 22.0768 8.94344 21.9075 9.07992ZM44.6624 17.1441L38.1304 11.7599V0.937605C38.1304 0.688936 38.0316 0.450453 37.8558 0.274618C37.68 0.0987832 37.4415 0 37.1928 0H32.8173C32.5687 0 32.3302 0.0987832 32.1543 0.274618C31.9785 0.450453 31.8797 0.688936 31.8797 0.937605V6.61089L24.8844 0.855564C24.2131 0.303143 23.3707 0.0011043 22.5013 0.0011043C21.632 0.0011043 20.7896 0.303143 20.1183 0.855564L0.340271 17.1441C0.245329 17.2226 0.166779 17.319 0.109111 17.4278C0.0514416 17.5367 0.0157836 17.6558 0.00417402 17.7784C-0.00743556 17.9011 0.00523079 18.0248 0.0414493 18.1425C0.0776679 18.2602 0.136729 18.3697 0.215257 18.4646L2.20767 20.8867C2.28598 20.9819 2.38231 21.0608 2.49113 21.1187C2.59996 21.1767 2.71915 21.2126 2.84187 21.2244C2.9646 21.2363 3.08845 21.2238 3.20634 21.1877C3.32423 21.1516 3.43385 21.0926 3.52891 21.0141L21.9075 5.87644C22.0768 5.73996 22.2878 5.66553 22.5052 5.66553C22.7227 5.66553 22.9336 5.73996 23.103 5.87644L41.4824 21.0141C41.5773 21.0926 41.6867 21.1517 41.8044 21.1879C41.9222 21.2241 42.0459 21.2368 42.1685 21.2251C42.2911 21.2135 42.4103 21.1779 42.5191 21.1202C42.6279 21.0625 42.7243 20.984 42.8028 20.889L44.7952 18.4669C44.8737 18.3715 44.9325 18.2615 44.9683 18.1432C45.0041 18.025 45.0161 17.9008 45.0038 17.7779C44.9915 17.655 44.9549 17.5357 44.8964 17.4269C44.8378 17.3182 44.7583 17.222 44.6624 17.1441Z" fill="black"/>
</svg>
