<svg width="22" height="20" viewBox="0 0 22 20" fill="none" xmlns="http://www.w3.org/2000/svg">
<path d="M21.7524 17.188C22.4574 18.4378 21.5725 20 20.1644 20H1.83541C0.424618 20 -0.456222 18.4354 0.247396 17.188L9.412 0.936914C10.1173 -0.313437 11.8839 -0.311172 12.588 0.936914L21.7524 17.188ZM11 13.8281C10.0297 13.8281 9.24306 14.6326 9.24306 15.625C9.24306 16.6174 10.0297 17.4219 11 17.4219C11.9703 17.4219 12.757 16.6174 12.757 15.625C12.757 14.6326 11.9703 13.8281 11 13.8281ZM9.33194 7.3693L9.61527 12.6818C9.62852 12.9304 9.8295 13.125 10.0729 13.125H11.9271C12.1705 13.125 12.3715 12.9304 12.3847 12.6818L12.6681 7.3693C12.6824 7.10078 12.4734 6.875 12.2104 6.875H9.78955C9.52662 6.875 9.31762 7.10078 9.33194 7.3693Z" fill="black"/>
</svg>
