<?xml version="1.0" encoding="UTF-8" standalone="no"?><!DOCTYPE svg PUBLIC "-//W3C//DTD SVG 1.1//EN" "http://www.w3.org/Graphics/SVG/1.1/DTD/svg11.dtd"><svg width="100%" height="100%" viewBox="0 0 92 51" version="1.1" xmlns="http://www.w3.org/2000/svg" xmlns:xlink="http://www.w3.org/1999/xlink" xml:space="preserve" xmlns:serif="http://www.serif.com/" style="fill-rule:evenodd;clip-rule:evenodd;"><g><rect x="0.938" y="4.667" width="86.647" height="45.813"/><clipPath id="_clip1"><rect id="Button.svg" x="5.125" y="0.48" width="86.647" height="45.813"/></clipPath><g clip-path="url(#_clip1)"><g id="Button"><rect x="5.125" y="0.48" width="86.647" height="45.813" style="fill:#fff;"/><path id="Search-Trails" serif:id="Search Trails" d="M27.424,28.561c-0.753,0 -1.418,-0.134 -1.994,-0.404c-0.576,-0.27 -1.027,-0.655 -1.353,-1.157c-0.325,-0.502 -0.488,-1.107 -0.488,-1.813l0,-0.39l1.813,-0l0,0.39c0,0.586 0.181,1.027 0.544,1.325c0.362,0.288 0.855,0.432 1.478,0.432c0.632,-0 1.101,-0.126 1.408,-0.377c0.316,-0.251 0.474,-0.571 0.474,-0.962c0,-0.269 -0.079,-0.488 -0.237,-0.655c-0.149,-0.167 -0.372,-0.302 -0.669,-0.404c-0.288,-0.112 -0.642,-0.214 -1.06,-0.307l-0.321,-0.07c-0.669,-0.148 -1.245,-0.334 -1.728,-0.557c-0.475,-0.233 -0.842,-0.535 -1.102,-0.907c-0.251,-0.372 -0.376,-0.855 -0.376,-1.45c-0,-0.595 0.139,-1.101 0.418,-1.52c0.288,-0.427 0.688,-0.753 1.199,-0.976c0.52,-0.232 1.129,-0.348 1.827,-0.348c0.697,-0 1.315,0.121 1.854,0.362c0.548,0.233 0.976,0.586 1.283,1.06c0.316,0.465 0.474,1.05 0.474,1.757l-0,0.418l-1.813,0l0,-0.418c0,-0.372 -0.074,-0.67 -0.223,-0.893c-0.139,-0.232 -0.344,-0.399 -0.613,-0.502c-0.27,-0.111 -0.591,-0.167 -0.962,-0.167c-0.558,0 -0.972,0.107 -1.241,0.321c-0.261,0.204 -0.391,0.488 -0.391,0.85c0,0.242 0.061,0.447 0.181,0.614c0.131,0.167 0.321,0.307 0.572,0.418c0.251,0.112 0.572,0.209 0.962,0.293l0.321,0.07c0.697,0.148 1.301,0.339 1.812,0.571c0.521,0.233 0.925,0.539 1.214,0.921c0.288,0.381 0.432,0.869 0.432,1.464c-0,0.594 -0.154,1.12 -0.46,1.575c-0.298,0.446 -0.725,0.8 -1.283,1.06c-0.549,0.251 -1.199,0.376 -1.952,0.376Zm5.123,-0.195l0,-6.916l1.757,0l-0,6.916l-1.757,0Zm0.879,-7.724c-0.316,-0 -0.586,-0.103 -0.809,-0.307c-0.214,-0.205 -0.321,-0.474 -0.321,-0.809c0,-0.334 0.107,-0.604 0.321,-0.809c0.223,-0.204 0.493,-0.306 0.809,-0.306c0.325,-0 0.594,0.102 0.808,0.306c0.214,0.205 0.321,0.475 0.321,0.809c-0,0.335 -0.107,0.604 -0.321,0.809c-0.214,0.204 -0.483,0.307 -0.808,0.307Zm2.49,4.294l0,-0.223c0,-0.725 0.144,-1.343 0.432,-1.854c0.289,-0.521 0.67,-0.916 1.144,-1.186c0.483,-0.278 1.008,-0.418 1.575,-0.418c0.632,0 1.111,0.112 1.436,0.335c0.326,0.223 0.563,0.455 0.712,0.697l0.251,-0l-0,-0.837l1.729,0l-0,8.143c-0,0.474 -0.14,0.851 -0.419,1.13c-0.279,0.288 -0.651,0.432 -1.115,0.432l-4.629,-0l-0,-1.534l4.015,-0c0.261,-0 0.391,-0.139 0.391,-0.418l-0,-1.799l-0.251,0c-0.093,0.149 -0.223,0.302 -0.391,0.46c-0.167,0.149 -0.39,0.274 -0.669,0.377c-0.279,0.102 -0.632,0.153 -1.06,0.153c-0.567,-0 -1.092,-0.135 -1.575,-0.404c-0.474,-0.279 -0.855,-0.674 -1.144,-1.186c-0.288,-0.52 -0.432,-1.143 -0.432,-1.868Zm3.653,1.924c0.539,0 0.99,-0.172 1.353,-0.516c0.362,-0.344 0.544,-0.827 0.544,-1.45l-0,-0.139c-0,-0.632 -0.182,-1.116 -0.544,-1.45c-0.353,-0.344 -0.804,-0.516 -1.353,-0.516c-0.539,-0 -0.99,0.172 -1.352,0.516c-0.363,0.334 -0.544,0.818 -0.544,1.45l0,0.139c0,0.623 0.181,1.106 0.544,1.45c0.362,0.344 0.813,0.516 1.352,0.516Zm5.573,1.506l0,-6.916l1.729,0l0,0.907l0.251,-0c0.112,-0.242 0.321,-0.47 0.628,-0.684c0.306,-0.223 0.771,-0.334 1.394,-0.334c0.539,-0 1.009,0.125 1.408,0.376c0.409,0.242 0.725,0.581 0.948,1.018c0.223,0.428 0.335,0.93 0.335,1.506l-0,4.127l-1.757,0l0,-3.988c0,-0.52 -0.13,-0.911 -0.39,-1.171c-0.251,-0.26 -0.614,-0.39 -1.088,-0.39c-0.539,-0 -0.957,0.181 -1.255,0.544c-0.297,0.353 -0.446,0.85 -0.446,1.491l0,3.514l-1.757,0Zm14.768,0.112c-0.539,-0 -1.014,-0.121 -1.423,-0.363c-0.399,-0.251 -0.711,-0.595 -0.934,-1.032c-0.223,-0.437 -0.334,-0.939 -0.334,-1.506l-0,-4.127l1.756,0l0,3.988c0,0.521 0.126,0.911 0.377,1.171c0.26,0.261 0.627,0.391 1.101,0.391c0.54,-0 0.958,-0.177 1.255,-0.53c0.298,-0.363 0.446,-0.865 0.446,-1.506l0,-3.514l1.757,0l0,6.916l-1.729,0l0,-0.906l-0.251,-0c-0.111,0.232 -0.32,0.46 -0.627,0.683c-0.307,0.223 -0.771,0.335 -1.394,0.335Zm5.956,2.677l0,-9.705l1.729,0l0,0.837l0.251,-0c0.158,-0.27 0.405,-0.507 0.739,-0.711c0.335,-0.214 0.814,-0.321 1.436,-0.321c0.558,0 1.074,0.14 1.548,0.418c0.474,0.27 0.855,0.67 1.143,1.2c0.289,0.529 0.433,1.171 0.433,1.924l-0,0.223c-0,0.753 -0.144,1.394 -0.433,1.924c-0.288,0.53 -0.669,0.934 -1.143,1.213c-0.474,0.27 -0.99,0.404 -1.548,0.404c-0.418,0 -0.771,-0.051 -1.059,-0.153c-0.279,-0.093 -0.507,-0.214 -0.683,-0.363c-0.168,-0.158 -0.303,-0.316 -0.405,-0.474l-0.251,0l0,3.584l-1.757,-0Zm3.626,-4.127c0.548,-0 0.999,-0.172 1.352,-0.516c0.363,-0.354 0.544,-0.865 0.544,-1.534l-0,-0.14c-0,-0.669 -0.181,-1.175 -0.544,-1.519c-0.362,-0.354 -0.813,-0.53 -1.352,-0.53c-0.54,-0 -0.99,0.176 -1.353,0.53c-0.362,0.344 -0.544,0.85 -0.544,1.519l0,0.14c0,0.669 0.182,1.18 0.544,1.534c0.363,0.344 0.813,0.516 1.353,0.516Z" style="fill-rule:nonzero;"/><rect x="6.121" y="1.476" width="84.655" height="43.821" style="fill:none;stroke:#000;stroke-width:1.99px;"/></g></g></g></svg>