<?xml version="1.0" encoding="UTF-8" standalone="no"?>
<!DOCTYPE svg PUBLIC "-//W3C//DTD SVG 1.1//EN" "http://www.w3.org/Graphics/SVG/1.1/DTD/svg11.dtd">
<svg width="100%" height="100%" viewBox="0 0 27 27" version="1.1" xmlns="http://www.w3.org/2000/svg" xmlns:xlink="http://www.w3.org/1999/xlink" xml:space="preserve" xmlns:serif="http://www.serif.com/" style="fill-rule:evenodd;clip-rule:evenodd;stroke-linejoin:round;stroke-miterlimit:2;">
    <g transform="matrix(1,0,0,1,-623,-1168)">
        <g transform="matrix(0.417386,0,0,0.417386,0,0)">
            <g transform="matrix(0.0866667,0,0,0.0852225,1364.04,2561.9)">
                <g id="location-pin-svgrepo-com.svg" transform="matrix(0.544273,0,0,0.498167,1629.54,3276.83)">
                    <g transform="matrix(1,0,0,1,-250,-400)">
                        <clipPath id="_clip1">
                            <rect x="0" y="0" width="500" height="800"/>
                        </clipPath>
                        <g clip-path="url(#_clip1)">
                            <g transform="matrix(0.995509,0,0,1,-148.204,0)">
                                <path d="M400.57,0L399.428,0C261.27,0 148.873,112.359 148.873,250.465C148.873,340.993 190.101,460.468 271.411,605.577C331.695,713.157 392.823,795.551 393.435,796.37C395.137,798.655 397.819,800.002 400.66,800.002C400.741,800.002 400.824,800.002 400.904,799.998C403.836,799.917 406.542,798.417 408.169,795.973C408.772,795.061 469.464,703.408 529.338,591.306C610.153,440.001 651.129,325.322 651.129,250.465C651.123,112.357 538.725,0 400.57,0ZM516.223,256.586C516.223,320.674 464.085,372.81 399.997,372.81C335.911,372.81 283.773,320.672 283.773,256.586C283.773,192.499 335.911,140.361 399.997,140.361C464.085,140.361 516.223,192.499 516.223,256.586Z" style="fill-rule:nonzero;"/>
                            </g>
                        </g>
                    </g>
                </g>
                <g id="location-pin-svgrepo-com.svg1" serif:id="location-pin-svgrepo-com.svg" transform="matrix(0.421302,0,0,0.385613,2106.91,2954.82)">
                    <g transform="matrix(1,0,0,1,-250,-400)">
                        <clipPath id="_clip2">
                            <rect x="0" y="0" width="500" height="800"/>
                        </clipPath>
                        <g clip-path="url(#_clip2)">
                            <g transform="matrix(0.995509,0,0,1,-148.204,0)">
                                <path d="M400.57,0L399.428,0C261.27,0 148.873,112.359 148.873,250.465C148.873,340.993 190.101,460.468 271.411,605.577C331.695,713.157 392.823,795.551 393.435,796.37C395.137,798.655 397.819,800.002 400.66,800.002C400.741,800.002 400.824,800.002 400.904,799.998C403.836,799.917 406.542,798.417 408.169,795.973C408.772,795.061 469.464,703.408 529.338,591.306C610.153,440.001 651.129,325.322 651.129,250.465C651.123,112.357 538.725,0 400.57,0ZM516.223,256.586C516.223,320.674 464.085,372.81 399.997,372.81C335.911,372.81 283.773,320.672 283.773,256.586C283.773,192.499 335.911,140.361 399.997,140.361C464.085,140.361 516.223,192.499 516.223,256.586Z" style="fill-rule:nonzero;"/>
                            </g>
                        </g>
                    </g>
                </g>
                <g transform="matrix(2.35797,0,0,2.28823,23.6215,125.818)">
                    <path d="M886.411,1314.04C884.108,1312.43 877.656,1310.77 868.653,1310.23C850.201,1309.13 819.921,1311.53 797.315,1321.44C783.412,1327.54 772.417,1336.53 767.834,1348.76C764.701,1357.12 764.437,1367.07 768.527,1378.85C770.471,1384.44 774.808,1392.71 777.935,1402.24C780.759,1410.85 782.63,1420.59 780.034,1430.22C777.44,1439.84 770.324,1449.16 755.833,1457.28C740.101,1466.09 716.127,1473.31 680.442,1477.75C677.612,1478.1 675.592,1480.75 675.933,1483.67C676.275,1486.58 678.85,1488.67 681.68,1488.31C719.139,1483.65 744.253,1475.88 760.767,1466.63C778.523,1456.68 786.808,1444.86 789.987,1433.07C793.162,1421.29 791.174,1409.36 787.721,1398.83C784.571,1389.23 780.212,1380.9 778.253,1375.26C775.171,1366.38 775.11,1358.89 777.47,1352.59C781.126,1342.84 790.268,1336.1 801.358,1331.24C822.489,1321.98 850.808,1319.83 868.056,1320.86C872.296,1321.11 875.838,1321.55 878.383,1322.15C879.392,1322.39 880.176,1322.54 880.607,1322.85C882.965,1324.5 886.18,1323.86 887.781,1321.43C889.383,1319 888.769,1315.69 886.411,1314.04Z"/>
                </g>
            </g>
        </g>
    </g>
</svg>
